<?xml version="1.0" encoding="utf-8"?>
<!-- Generator: Adobe Illustrator 16.0.0, SVG Export Plug-In . SVG Version: 6.00 Build 0)  -->
<!DOCTYPE svg PUBLIC "-//W3C//DTD SVG 1.1//EN" "http://www.w3.org/Graphics/SVG/1.1/DTD/svg11.dtd">
<svg version="1.1" id="Layer_1" xmlns="http://www.w3.org/2000/svg" xmlns:xlink="http://www.w3.org/1999/xlink" x="0px" y="0px"
	 width="800px" height="800px" viewBox="0 0 800 800" enable-background="new 0 0 800 800" xml:space="preserve">
<path fill="#E9EAF5" stroke="#292A3B" stroke-width="11" stroke-miterlimit="10" d="M630.392,709.237
	c0,37.146-30.114,67.262-67.262,67.262H236.956c-37.147,0-67.262-30.115-67.262-67.262V201.755
	c0-37.147,30.114-67.262,67.262-67.262H563.13c37.147,0,67.262,30.115,67.262,67.262V709.237z"/>
<path opacity="0.1" fill="#606DB3" d="M630.397,209.17v507.478c0,37.141-30.119,67.262-67.262,67.262h-62.015
	c8.811-27.658,19.304-65.971,24.659-105.104c10.25-74.917,0.806-127.784-29.435-169.797c-30.241-41.998-17.676-86.982-2.933-188.333
	c10.506-72.171-8.583-132.223-35.326-178.768h105.049C600.278,141.909,630.397,172.015,630.397,209.17z"/>
<path fill="#28293A" d="M463.049,41.365c-16.118-16.119-38.411-26.097-63.005-26.097c-24.593,0-46.888,9.978-63.007,26.097
	c-16.118,16.12-26.097,38.415-26.097,63.007c0,24.593,9.979,46.85,26.097,63.007c16.119,16.12,38.415,26.097,63.007,26.097
	c49.226,0,89.103-39.919,89.103-89.104C489.146,79.78,479.169,57.484,463.049,41.365z M400.044,179.021
	c-20.632,0-39.285-8.354-52.79-21.859c-13.505-13.505-21.86-32.157-21.86-52.79c0-20.632,8.355-39.323,21.86-52.828
	c13.504-13.504,32.157-21.862,52.79-21.862c20.634,0,39.282,8.358,52.788,21.862c13.504,13.505,21.861,32.196,21.861,52.828
	C474.693,145.598,441.268,179.021,400.044,179.021z"/>
<path fill="#28293A" d="M525.78,151.12c0,24.333-19.725,44.058-44.059,44.058H318.364c-24.332,0-44.057-19.724-44.057-44.058l0,0
	c0-24.333,19.725-44.057,44.057-44.057h163.358C506.056,107.063,525.78,126.786,525.78,151.12L525.78,151.12z"/>
<rect x="295.643" y="488.685" fill="#C6C9E6" width="230.138" height="32.13"/>
<rect x="295.643" y="535.917" fill="#C6C9E6" width="227.593" height="32.13"/>
<polygon fill="#C6C9E6" points="389.31,233.876 422.652,301.434 497.206,312.267 443.258,364.854 455.994,439.107 389.31,404.049 
	322.626,439.106 335.362,364.854 281.414,312.267 355.968,301.434 "/>
<polygon fill="#C6C9E6" points="210.844,505.105 217.99,498.012 230.852,511.129 257.137,484.844 264.027,491.938 230.852,524.654 
	"/>
<polygon fill="#C6C9E6" points="210.844,556.179 217.99,549.085 230.852,562.202 257.137,535.917 264.027,543.012 230.852,575.728 
	"/>
<rect x="295.643" y="590.917" fill="#C6C9E6" width="227.593" height="32.13"/>
<polygon fill="#C6C9E6" points="210.844,611.179 217.99,604.085 230.852,617.202 257.137,590.917 264.027,598.012 230.852,630.728 
	"/>
<rect x="295.643" y="645.917" fill="#C6C9E6" width="188.68" height="32.13"/>
<polygon fill="#C6C9E6" points="210.844,666.179 217.99,659.085 230.852,672.202 257.137,645.917 264.027,653.012 230.852,685.728 
	"/>
</svg>
