<?xml version="1.0" encoding="utf-8"?>
<!-- Generator: Adobe Illustrator 16.0.0, SVG Export Plug-In . SVG Version: 6.00 Build 0)  -->
<!DOCTYPE svg PUBLIC "-//W3C//DTD SVG 1.1//EN" "http://www.w3.org/Graphics/SVG/1.1/DTD/svg11.dtd">
<svg version="1.1" id="Layer_1" xmlns="http://www.w3.org/2000/svg" xmlns:xlink="http://www.w3.org/1999/xlink" x="0px" y="0px"
	 width="800px" height="800px" viewBox="0 0 800 800" enable-background="new 0 0 800 800" xml:space="preserve">
<path fill="#E9EAF5" stroke="#292A3B" stroke-width="11" stroke-miterlimit="10" d="M598.392,704.237
	c0,37.146-30.114,67.262-67.262,67.262H204.956c-37.147,0-67.262-30.115-67.262-67.262V196.755
	c0-37.147,30.114-67.262,67.262-67.262H531.13c37.147,0,67.262,30.115,67.262,67.262V704.237z"/>
<rect x="184.992" y="557.805" fill="#C6C9E6" width="276.417" height="41.3"/>
<rect x="184.992" y="632.507" fill="#C6C9E6" width="206.393" height="41.3"/>
<rect x="236.818" y="277.285" fill="#C6C9E6" width="37.122" height="140.771"/>
<path opacity="0.1" fill="#606DB3" d="M598.397,204.17v507.478c0,37.141-30.119,67.262-67.262,67.262h-62.015
	c8.811-27.658,19.304-65.971,24.659-105.104c10.25-74.917,0.806-127.784-29.435-169.797c-30.241-41.998-17.676-86.982-2.933-188.333
	c10.506-72.171-8.583-132.223-35.326-178.768h105.049C568.278,136.909,598.397,167.015,598.397,204.17z"/>
<rect x="184.992" y="329.109" fill="#C6C9E6" width="140.773" height="37.122"/>
<path fill="#28293A" d="M431.049,36.365c-16.118-16.119-38.411-26.097-63.005-26.097c-24.593,0-46.888,9.978-63.007,26.097
	c-16.118,16.12-26.097,38.415-26.097,63.007c0,24.593,9.979,46.85,26.097,63.007c16.119,16.12,38.415,26.097,63.007,26.097
	c49.226,0,89.103-39.919,89.103-89.104C457.146,74.78,447.169,52.484,431.049,36.365z M368.044,174.021
	c-20.632,0-39.285-8.354-52.79-21.859c-13.505-13.505-21.86-32.157-21.86-52.79c0-20.632,8.355-39.323,21.86-52.828
	c13.504-13.504,32.157-21.862,52.79-21.862c20.634,0,39.282,8.358,52.788,21.862c13.504,13.505,21.861,32.196,21.861,52.828
	C442.693,140.598,409.268,174.021,368.044,174.021z"/>
<path fill="#28293A" d="M493.78,146.12c0,24.333-19.725,44.058-44.059,44.058H286.364c-24.332,0-44.057-19.724-44.057-44.058l0,0
	c0-24.333,19.725-44.057,44.057-44.057h163.358C474.056,102.063,493.78,121.786,493.78,146.12L493.78,146.12z"/>
<rect x="184.992" y="483.367" fill="#C6C9E6" width="359.344" height="41.299"/>
</svg>
