<?xml version="1.0" encoding="utf-8"?>
<!-- Generator: Adobe Illustrator 16.0.0, SVG Export Plug-In . SVG Version: 6.00 Build 0)  -->
<!DOCTYPE svg PUBLIC "-//W3C//DTD SVG 1.1//EN" "http://www.w3.org/Graphics/SVG/1.1/DTD/svg11.dtd">
<svg version="1.1" id="Layer_1" xmlns="http://www.w3.org/2000/svg" xmlns:xlink="http://www.w3.org/1999/xlink" x="0px" y="0px"
	 width="800px" height="800px" viewBox="0 0 800 800" enable-background="new 0 0 800 800" xml:space="preserve">
<g>
	<circle fill="#FED73C" cx="487.534" cy="405.868" r="54.494"/>
	<circle fill="#FDC010" cx="487.534" cy="405.868" r="44.571"/>
</g>
<g>
	<circle fill="#FED73C" cx="376.862" cy="424.873" r="54.494"/>
	<circle fill="#FDC010" cx="376.862" cy="424.873" r="44.571"/>
</g>
<g>
	<circle fill="#FED73C" cx="580.447" cy="434.374" r="54.494"/>
	<circle fill="#FDC010" cx="580.448" cy="434.374" r="44.571"/>
</g>
<g>
	<circle fill="#FED73C" cx="474.935" cy="479.367" r="54.494"/>
	<circle fill="#FDC010" cx="474.935" cy="479.367" r="44.571"/>
</g>
<path fill="#97D09D" stroke="#292A3B" stroke-width="11" stroke-miterlimit="10" d="M485.675,329.68c0,0,8.566-49.799,64.324-26.533
	c34.789,14.517,58.788,0.758,58.788,0.758S559.967,401.091,485.675,329.68z"/>
<path fill="#97D09D" stroke="#292A3B" stroke-width="11" stroke-miterlimit="10" d="M350.778,352.549c0,0,15.161,10.613,62.92,0
	c47.759-10.613,55.339,15.252,57.613,33.021C473.586,403.34,394.746,432.904,350.778,352.549z"/>
<path fill="#28293A" d="M484.077,259.305c0,0,4.179,42.875-7.458,74.292c-11.637,31.417-12.033,76.384-5.26,96.185l7.533,2.117
	c0,0-6.822-87.689,8.339-101.334c0,0,9.097-47.759,4.548-71.259C487.231,235.805,484.077,259.305,484.077,259.305z"/>
<path fill="#97D09D" stroke="#292A3B" stroke-width="11" stroke-miterlimit="10" d="M453.118,141.045c0,0,5.504,8.339,0,52.307
	s3.79,75.808,34.113,83.389S546.361,163.787,453.118,141.045z"/>
<path fill="#E9EAF5" stroke="#292A3B" stroke-width="11" stroke-miterlimit="10" d="M191.452,514.375l-69.692,52.762
	l111.496,138.342l61.69-54.734L191.452,514.375z M249.022,660.539c-8.777,0-15.916-7.138-15.916-15.915
	c0-8.811,7.138-15.916,15.916-15.916c8.81,0,15.945,7.105,15.945,15.916C264.967,653.401,257.832,660.539,249.022,660.539z"/>
<path fill="#F3A978" stroke="#292A3B" stroke-width="11" stroke-miterlimit="10" d="M218.317,501.441
	c0,0,51.753-91.568,139.343-60.715c87.59,30.855,129.394,22.893,129.394,22.893s34.835-7.963,43.793,14.931
	c8.958,22.892-7.961,36.826-27.868,40.807c-19.907,3.981-127.166,7.964-127.166,7.964s137.063,21.898,157.495-5.972
	c20.433-27.869,18.44-40.809,18.44-40.809s8.959-8.958,35.832-23.889c26.874-14.931,97.543-40.81,70.668,8.958
	c-26.873,49.768-137.357,109.486-196.079,118.444c-58.723,8.958-99.534-13.935-161.242,39.813L218.317,501.441z"/>
<path fill="#F9BC92" d="M664.74,463.61C637.87,513.38,527.38,573.1,468.66,582.05c-58.72,8.96-99.53-13.93-161.24,39.82
	l-28.64-42.45c30.07-15.93,79.2-38.5,105.08-31.6c34.99,9.33,114.081,3.75,142.05-19.771c6.32-2.12,11.149-4.96,13.89-8.7
	c5.22-7.119,8.97-13.26,11.67-18.46c7.87-15.17,6.771-22.35,6.771-22.35s8.96-8.96,35.83-23.89c4.52-2.511,10.279-5.33,16.609-8.061
	C641.96,433.16,687.1,422.21,664.74,463.61z"/>
<path fill="#F3A978" d="M610.68,448.59c-7.12,14.26-23.069,28.65-33.319,40.19c-11.71,13.18-18.86,12.08-25.891,14.109
	c7.87-15.17,6.771-22.35,6.771-22.35s8.96-8.96,35.83-23.89C598.59,454.14,604.35,451.32,610.68,448.59z"/>
<polygon opacity="0.1" fill="#606DB3" points="126.369,563.647 190.351,523.939 229.766,701.148 "/>
</svg>
