<?xml version="1.0" encoding="utf-8"?>
<!-- Generator: Adobe Illustrator 16.0.0, SVG Export Plug-In . SVG Version: 6.00 Build 0)  -->
<!DOCTYPE svg PUBLIC "-//W3C//DTD SVG 1.1//EN" "http://www.w3.org/Graphics/SVG/1.1/DTD/svg11.dtd">
<svg version="1.1" id="Layer_1" xmlns="http://www.w3.org/2000/svg" xmlns:xlink="http://www.w3.org/1999/xlink" x="0px" y="0px"
	 width="800px" height="800px" viewBox="0 0 800 800" enable-background="new 0 0 800 800" xml:space="preserve">
<path fill="#28293A" d="M647.282,245.669v33.51H131.719v-33.51c0-28.483,24.397-51.555,54.459-51.555h57.863v65.294h56.963v-65.294
	h177.209v65.294h56.965v-65.294h57.644C622.887,194.114,647.282,217.186,647.282,245.669z"/>
<path fill="#E9EAF5" stroke="#292A3B" stroke-width="11" stroke-miterlimit="10" d="M633.532,300.652v314.767
	c0,33.999-23.071,61.581-51.555,61.581H197.021c-28.484,0-51.554-27.582-51.554-61.581V300.652H633.532z"/>
<rect x="180.274" y="328.148" fill="#C6C9E6" width="89.36" height="94.518"/>
<rect x="290.257" y="328.148" fill="#C6C9E6" width="89.361" height="94.518"/>
<rect x="400.238" y="328.148" fill="#C6C9E6" width="89.361" height="94.518"/>
<rect x="510.22" y="328.148" fill="#C6C9E6" width="89.364" height="94.518"/>
<rect x="180.274" y="436.413" fill="#C6C9E6" width="89.36" height="94.518"/>
<rect x="290.257" y="436.413" fill="#C6C9E6" width="89.361" height="94.518"/>
<rect x="400.238" y="436.413" fill="#C6C9E6" width="89.361" height="94.518"/>
<rect x="510.22" y="436.413" fill="#28293A" width="89.364" height="94.518"/>
<rect x="180.274" y="547.255" fill="#28293A" width="89.36" height="94.518"/>
<rect x="290.257" y="547.255" fill="#28293A" width="89.361" height="94.518"/>
<rect x="400.238" y="547.255" fill="#28293A" width="89.361" height="94.518"/>
<rect x="510.22" y="547.255" fill="#28293A" width="89.364" height="94.518"/>
<path fill="#28293A" d="M290.113,235.564c0,10.321-8.839,18.688-19.742,18.688l0,0c-10.902,0-19.741-8.368-19.741-18.688v-94.087
	c0-10.321,8.838-18.688,19.741-18.688l0,0c10.903,0,19.742,8.367,19.742,18.688V235.564z"/>
<path fill="#28293A" d="M525.648,234.275c0,10.321-8.839,18.688-19.741,18.688l0,0c-10.902,0-19.743-8.367-19.743-18.688v-94.087
	c0-10.321,8.841-18.688,19.743-18.688l0,0c10.902,0,19.741,8.368,19.741,18.688V234.275z"/>
</svg>
