<?xml version="1.0" encoding="utf-8"?>
<!-- Generator: Adobe Illustrator 16.0.0, SVG Export Plug-In . SVG Version: 6.00 Build 0)  -->
<!DOCTYPE svg PUBLIC "-//W3C//DTD SVG 1.1//EN" "http://www.w3.org/Graphics/SVG/1.1/DTD/svg11.dtd">
<svg version="1.1" id="Layer_1" xmlns="http://www.w3.org/2000/svg" xmlns:xlink="http://www.w3.org/1999/xlink" x="0px" y="0px"
	 width="800px" height="800px" viewBox="0 0 800 800" enable-background="new 0 0 800 800" xml:space="preserve">
<g>
	<circle fill="#FED73C" cx="373.862" cy="428.873" r="54.494"/>
	<circle fill="#FDC010" cx="373.862" cy="428.873" r="44.571"/>
</g>
<g>
	<circle fill="#FED73C" cx="577.447" cy="438.374" r="54.494"/>
	<circle fill="#FDC010" cx="577.448" cy="438.374" r="44.571"/>
</g>
<g>
	<circle fill="#FED73C" cx="471.935" cy="483.367" r="54.494"/>
	<circle fill="#FDC010" cx="471.935" cy="483.367" r="44.571"/>
</g>
<path fill="#E9EAF5" stroke="#292A3B" stroke-width="11" stroke-miterlimit="10" d="M188.452,518.375l-69.692,52.762
	l111.496,138.342l61.69-54.734L188.452,518.375z M246.022,664.539c-8.777,0-15.916-7.138-15.916-15.915
	c0-8.811,7.138-15.916,15.916-15.916c8.81,0,15.945,7.105,15.945,15.916C261.967,657.401,254.832,664.539,246.022,664.539z"/>
<path fill="#F3A978" stroke="#292A3B" stroke-width="11" stroke-miterlimit="10" d="M215.317,505.441
	c0,0,51.753-91.568,139.343-60.715c87.59,30.855,129.394,22.893,129.394,22.893s34.835-7.963,43.793,14.931
	c8.958,22.892-7.961,36.826-27.868,40.807c-19.907,3.981-127.166,7.964-127.166,7.964s137.063,21.898,157.495-5.972
	c20.433-27.869,18.44-40.809,18.44-40.809s8.959-8.958,35.832-23.889c26.874-14.931,97.543-40.81,70.668,8.958
	c-26.873,49.768-137.357,109.486-196.079,118.444c-58.723,8.958-99.534-13.935-161.242,39.813L215.317,505.441z"/>
<g>
	<circle fill="#FED73C" cx="471.935" cy="339.309" r="54.494"/>
	<circle fill="#FDC010" cx="471.935" cy="339.309" r="44.571"/>
</g>
<g>
	<circle fill="#FED73C" cx="482.85" cy="145.016" r="54.494"/>
	<circle fill="#FDC010" cx="482.85" cy="145.016" r="44.571"/>
</g>
<path fill="#F9BC92" d="M661.74,467.61C634.87,517.38,524.38,577.1,465.66,586.05c-58.72,8.96-99.53-13.93-161.24,39.82
	l-28.64-42.45c30.07-15.93,79.2-38.5,105.08-31.6c34.99,9.33,114.081,3.75,142.05-19.771c6.32-2.12,11.149-4.96,13.89-8.7
	c5.22-7.119,8.97-13.26,11.67-18.46c7.87-15.17,6.771-22.35,6.771-22.35s8.96-8.96,35.83-23.89c4.52-2.511,10.279-5.33,16.609-8.061
	C638.96,437.16,684.1,426.21,661.74,467.61z"/>
<path fill="#F3A978" d="M607.68,452.59c-7.12,14.26-23.069,28.65-33.319,40.19c-11.71,13.18-18.86,12.08-25.891,14.109
	c7.87-15.17,6.771-22.35,6.771-22.35s8.96-8.96,35.83-23.89C595.59,458.14,601.35,455.32,607.68,452.59z"/>
<polygon opacity="0.1" fill="#606DB3" points="123.369,567.647 187.351,527.939 226.766,705.148 "/>
</svg>
