<?xml version="1.0" encoding="utf-8"?>
<!-- Generator: Adobe Illustrator 16.0.0, SVG Export Plug-In . SVG Version: 6.00 Build 0)  -->
<!DOCTYPE svg PUBLIC "-//W3C//DTD SVG 1.1//EN" "http://www.w3.org/Graphics/SVG/1.1/DTD/svg11.dtd">
<svg version="1.1" id="Layer_1" xmlns="http://www.w3.org/2000/svg" xmlns:xlink="http://www.w3.org/1999/xlink" x="0px" y="0px"
	 width="800px" height="800px" viewBox="0 0 800 800" enable-background="new 0 0 800 800" xml:space="preserve">
<path fill="#E9EAF5" stroke="#292A3B" stroke-width="11" stroke-miterlimit="10" d="M630.392,709.237
	c0,37.146-30.114,67.262-67.262,67.262H236.956c-37.147,0-67.262-30.115-67.262-67.262V201.755
	c0-37.147,30.114-67.262,67.262-67.262H563.13c37.147,0,67.262,30.115,67.262,67.262V709.237z"/>
<path opacity="0.1" fill="#606DB3" d="M630.397,209.17v507.478c0,37.141-30.119,67.262-67.262,67.262h-62.015
	c8.811-27.658,19.304-65.971,24.659-105.104c10.25-74.917,0.806-127.784-29.435-169.797c-30.241-41.998-17.676-86.982-2.933-188.333
	c10.506-72.171-8.583-132.223-35.326-178.768h105.049C600.278,141.909,630.397,172.015,630.397,209.17z"/>
<path fill="#28293A" d="M463.049,41.365c-16.118-16.119-38.411-26.097-63.005-26.097c-24.593,0-46.888,9.978-63.007,26.097
	c-16.118,16.12-26.097,38.415-26.097,63.007c0,24.593,9.979,46.85,26.097,63.007c16.119,16.12,38.415,26.097,63.007,26.097
	c49.226,0,89.103-39.919,89.103-89.104C489.146,79.78,479.169,57.484,463.049,41.365z M400.044,179.021
	c-20.632,0-39.285-8.354-52.79-21.859c-13.505-13.505-21.86-32.157-21.86-52.79c0-20.632,8.355-39.323,21.86-52.828
	c13.504-13.504,32.157-21.862,52.79-21.862c20.634,0,39.282,8.358,52.788,21.862c13.504,13.505,21.861,32.196,21.861,52.828
	C474.693,145.598,441.268,179.021,400.044,179.021z"/>
<path fill="#28293A" d="M525.78,151.12c0,24.333-19.725,44.058-44.059,44.058H318.364c-24.332,0-44.057-19.724-44.057-44.058l0,0
	c0-24.333,19.725-44.057,44.057-44.057h163.358C506.056,107.063,525.78,126.786,525.78,151.12L525.78,151.12z"/>
<rect x="284.907" y="466.988" fill="#C6C9E6" width="230.138" height="32.13"/>
<rect x="284.907" y="514.221" fill="#C6C9E6" width="179.452" height="32.13"/>
<rect x="207.715" y="469.147" fill="#C6C9E6" width="64.383" height="27.813"/>
<rect x="207.715" y="516.38" fill="#C6C9E6" width="64.383" height="27.813"/>
<rect x="210.428" y="581.909" fill="#C6C9E6" width="357.764" height="29.503"/>
<rect x="210.428" y="623.758" fill="#C6C9E6" width="357.764" height="29.504"/>
<rect x="210.428" y="665.7" fill="#C6C9E6" width="278.719" height="29.503"/>
<circle fill="#C6C9E6" cx="377.781" cy="325.654" r="91.781"/>
<g>
	<path fill="#E9EAF5" d="M372.586,353.5c0,5.674-4.6,10.274-10.274,10.274l0,0c-5.674,0-10.274-4.6-10.274-10.274v-73.973
		c0-5.674,4.6-10.274,10.274-10.274l0,0c5.674,0,10.274,4.6,10.274,10.274V353.5z"/>
	<path fill="#E9EAF5" d="M362.932,366.273c-5.674,0.058-10.32-4.495-10.377-10.169l0,0c-0.058-5.674,4.495-10.32,10.169-10.377
		l73.968-0.75c5.675-0.058,10.32,4.495,10.378,10.169l0,0c0.058,5.673-4.495,10.319-10.169,10.377L362.932,366.273z"/>
</g>
</svg>
