<?xml version="1.0" encoding="utf-8"?>
<!-- Generator: Adobe Illustrator 16.0.0, SVG Export Plug-In . SVG Version: 6.00 Build 0)  -->
<!DOCTYPE svg PUBLIC "-//W3C//DTD SVG 1.1//EN" "http://www.w3.org/Graphics/SVG/1.1/DTD/svg11.dtd">
<svg version="1.1" id="Layer_1" xmlns="http://www.w3.org/2000/svg" xmlns:xlink="http://www.w3.org/1999/xlink" x="0px" y="0px"
	 width="100px" height="100px" viewBox="0 0 100 100" enable-background="new 0 0 100 100" xml:space="preserve">
<g>
	<path fill="#FFFFFF" d="M41.366,75.745c0.241,1.958,1.196,3.876,4.197,3.053c5.603-1.536,25.47-30.056,25.47-30.056
		s0.852-2.121-1.186-2.121c-1.688,0-17.424,13.146-24.613,21.021C43.74,69.278,41.157,74.046,41.366,75.745z"/>
	<path fill="#FFFFFF" d="M75.758,26.454c-10.252-6.379-43.742-9.293-62.541,12.586C11,41.619,6.115,50.756,6.083,55.945
		c-0.032,5.19,1.031,12.66,7.78,14.315c6.641,1.628,13.114,0.88,17.945-2.261c6.537-4.246,14.395-13.511,18.82-17.606
		c9.094-8.415,22.868-19.059,28.694-14.261c8.66,7.132-4.33,22.413-9.169,26.233c-4.84,3.82-8.553,7.1,0.254,8.492
		c6.738,1.067,21.626,4.498,24.44-11.039C97.662,44.283,87.219,33.585,75.758,26.454z M19.245,61.617
		c-3.582,0-6.483-3.064-6.483-6.846c0-3.78,2.901-6.843,6.483-6.843s6.483,3.063,6.483,6.843
		C25.728,58.553,22.827,61.617,19.245,61.617z M33.031,47.339c-3.582,0-6.483-3.064-6.483-6.845s2.901-6.843,6.483-6.843
		c3.582,0,6.483,3.063,6.483,6.843S36.612,47.339,33.031,47.339z M49.614,36.469c-3.158,0-5.717-2.702-5.717-6.038
		c0-3.333,2.559-6.035,5.717-6.035c3.16,0,5.723,2.702,5.723,6.035C55.337,33.767,52.774,36.469,49.614,36.469z"/>
</g>
</svg>
