<?xml version="1.0" encoding="utf-8"?>
<!-- Generator: Adobe Illustrator 16.0.0, SVG Export Plug-In . SVG Version: 6.00 Build 0)  -->
<!DOCTYPE svg PUBLIC "-//W3C//DTD SVG 1.1//EN" "http://www.w3.org/Graphics/SVG/1.1/DTD/svg11.dtd">
<svg version="1.1" id="Layer_1" xmlns="http://www.w3.org/2000/svg" xmlns:xlink="http://www.w3.org/1999/xlink" x="0px" y="0px"
	 width="282px" height="166px" viewBox="0 0 282 166" enable-background="new 0 0 282 166" xml:space="preserve">
<path fill="none" stroke="#EFEFEF" d="M101.303,23.819l2.603-8.617l8.999-0.188l2.959,8.501l-7.17,5.442L101.303,23.819z"/>
<path fill="none" stroke="#EFEFEF" d="M167.345,139.019l-14.205-19.005l13.686-19.383l22.663,7.025l0.321,23.725L167.345,139.019z"
	/>
<path fill="none" stroke="#EFEFEF" d="M54.342,119.918l1.33-16.957l14.02,9.631L54.342,119.918z"/>
<path fill="none" stroke="#EFEFEF" d="M187.37,13.911l5.58-7.126l3.381,8.395L187.37,13.911z"/>
<path fill="none" stroke="#EFEFEF" d="M237.178,79.121l29.155,3.847l-17.909,23.325L237.178,79.121z"/>
<g>
	<path fill="none" stroke="#EFEFEF" d="M77.202,136.852c3.136-1.448,4.358-0.439,3.602,2.971"/>
	<path fill="none" stroke="#EFEFEF" d="M77.201,136.852c-3.135,1.447-4.358,0.439-3.601-2.971"/>
	<path fill="none" stroke="#EFEFEF" d="M84.404,142.792c3.135-1.448,4.358-0.44,3.601,2.97"/>
	<path fill="none" stroke="#EFEFEF" d="M84.404,142.792c-3.135,1.448-4.358,0.438-3.601-2.971"/>
	<path fill="none" stroke="#EFEFEF" d="M70,130.911c3.135-1.448,4.358-0.438,3.601,2.97"/>
	<path fill="none" stroke="#EFEFEF" d="M69.998,130.911c-3.135,1.448-4.358,0.438-3.601-2.97"/>
</g>
<g>
	<path fill="none" stroke="#EFEFEF" d="M74.746,41.928c2.806-0.343,3.223-1.572,1.227-3.619"/>
	<path fill="none" stroke="#EFEFEF" d="M74.746,41.928c-2.806,0.342-3.223,1.571-1.227,3.618"/>
	<path fill="none" stroke="#EFEFEF" d="M77.201,34.691c2.806-0.343,3.223-1.572,1.227-3.619"/>
	<path fill="none" stroke="#EFEFEF" d="M77.201,34.69c-2.806,0.343-3.223,1.571-1.227,3.619"/>
	<path fill="none" stroke="#EFEFEF" d="M72.293,49.164c2.806-0.343,3.223-1.572,1.227-3.619"/>
	<path fill="none" stroke="#EFEFEF" d="M72.292,49.164c-2.806,0.343-3.223,1.571-1.227,3.619"/>
</g>
<path fill="none" stroke="#EFEFEF" stroke-miterlimit="10" d="M179.262,56.037c-1.509,5.479-4.154,6.003-7.787,1.544"/>
<g>
	<path fill="none" stroke="#EFEFEF" d="M194.834,52.948c-1.509,5.479-4.152,6.003-7.786,1.544"/>
	<path fill="none" stroke="#EFEFEF" d="M194.834,52.948c1.51-5.479,4.154-6.003,7.787-1.544"/>
	<path fill="none" stroke="#EFEFEF" d="M179.262,56.037c1.51-5.479,4.153-6.003,7.786-1.544"/>
	<path fill="none" stroke="#EFEFEF" d="M210.406,49.86c-1.51,5.478-4.153,6.003-7.786,1.544"/>
	<path fill="none" stroke="#EFEFEF" d="M210.406,49.859c1.509-5.479,4.154-6.003,7.787-1.544"/>
</g>
<circle fill="none" stroke="#EFEFEF" cx="38.888" cy="66.877" r="17.326"/>
<circle fill="none" stroke="#EFEFEF" cx="147.764" cy="42.992" r="9.93"/>
<circle fill="none" stroke="#EFEFEF" cx="125.188" cy="143.433" r="4.91"/>
<g>
	<path fill="none" stroke="#EFEFEF" d="M130.917,116.854c3.136-1.447,4.358-0.439,3.602,2.971"/>
	<path fill="none" stroke="#EFEFEF" d="M130.917,116.854c-3.135,1.447-4.358,0.439-3.602-2.971"/>
	<path fill="none" stroke="#EFEFEF" d="M138.119,122.795c3.135-1.449,4.358-0.441,3.6,2.969"/>
	<path fill="none" stroke="#EFEFEF" d="M138.119,122.795c-3.136,1.447-4.358,0.438-3.601-2.971"/>
	<path fill="none" stroke="#EFEFEF" d="M123.715,110.914c3.135-1.449,4.357-0.439,3.601,2.969"/>
	<path fill="none" stroke="#EFEFEF" d="M123.713,110.914c-3.135,1.447-4.358,0.438-3.602-2.971"/>
</g>
<g>
	<path fill="none" stroke="#EFEFEF" d="M105.393,67.217c3.136-1.448,4.358-0.439,3.602,2.971"/>
	<path fill="none" stroke="#EFEFEF" d="M105.393,67.217c-3.135,1.447-4.358,0.439-3.602-2.971"/>
	<path fill="none" stroke="#EFEFEF" d="M112.595,73.157c3.135-1.448,4.358-0.44,3.601,2.97"/>
	<path fill="none" stroke="#EFEFEF" d="M112.595,73.157c-3.136,1.448-4.358,0.438-3.601-2.971"/>
	<path fill="none" stroke="#EFEFEF" d="M98.192,61.276c3.135-1.448,4.357-0.438,3.601,2.97"/>
	<path fill="none" stroke="#EFEFEF" d="M98.19,61.276c-3.135,1.448-4.358,0.438-3.602-2.97"/>
</g>
<g>
	<polygon fill="#E2E2E2" points="122.072,69.674 122.072,63.731 151.838,63.731 163.748,76.304 163.748,113.624 122.323,113.563 
		122.184,103.569 121.593,101.626 126.001,103.769 125.955,109.778 159.907,109.778 159.907,79.114 149.438,79.114 149.438,67.295 
		125.667,67.518 125.586,69.275 	"/>
	<path fill="#E2E2E2" d="M154.742,83.973c0,1.058-0.858,1.917-1.917,1.917h-11.103c-1.061,0-1.918-0.859-1.918-1.917l0,0
		c0-1.059,0.857-1.917,1.918-1.917h11.103C153.884,82.055,154.742,82.914,154.742,83.973L154.742,83.973z"/>
	<path fill="#E2E2E2" d="M154.343,91.96c0,1.059-0.858,1.918-1.917,1.918h-11.103c-1.06,0-1.917-0.859-1.917-1.918l0,0
		c0-1.059,0.857-1.917,1.917-1.917h11.103C153.484,90.043,154.343,90.901,154.343,91.96L154.343,91.96z"/>
	<path fill="#E2E2E2" d="M153.943,99.014c0,1.058-1.22,1.917-2.728,1.917h-15.793c-1.506,0-2.727-0.859-2.727-1.917l0,0
		c0-1.059,1.22-1.917,2.727-1.917h15.793C152.724,97.097,153.943,97.955,153.943,99.014L153.943,99.014z"/>
	<ellipse fill="none" stroke="#E2E2E2" stroke-width="5" cx="125.187" cy="87.825" rx="14.617" ry="15.512"/>
	<polygon fill="#E2E2E2" points="106.619,99.014 110.077,103.337 103.933,108.525 100.708,104.01 	"/>
</g>
<path fill="none" stroke="#EFEFEF" d="M78.777,94.535l-6.398-8.561l6.164-8.729l10.208,3.164l0.145,10.686L78.777,94.535z"/>
<path fill="none" stroke="#EFEFEF" d="M168.286,71.826l21.95,2.896l-13.483,17.561L168.286,71.826z"/>
<circle fill="none" stroke="#EFEFEF" cx="88.896" cy="112.078" r="4.91"/>
<path fill="none" stroke="#EFEFEF" d="M36.273,34.691l1.33-16.957l14.02,9.631L36.273,34.691z"/>
<path fill="none" stroke="#EFEFEF" d="M7.002,13.994l2.603-8.617l8.999-0.188l2.959,8.501l-7.17,5.442L7.002,13.994z"/>
<g>
	<path fill="none" stroke="#EFEFEF" d="M60.038,88.678c3.136-1.448,4.358-0.439,3.602,2.971"/>
	<path fill="none" stroke="#EFEFEF" d="M60.038,88.678c-3.135,1.447-4.358,0.439-3.602-2.971"/>
	<path fill="none" stroke="#EFEFEF" d="M67.24,94.618c3.135-1.448,4.358-0.44,3.601,2.97"/>
	<path fill="none" stroke="#EFEFEF" d="M67.24,94.618c-3.136,1.448-4.358,0.438-3.601-2.971"/>
	<path fill="none" stroke="#EFEFEF" d="M52.836,82.737c3.135-1.448,4.358-0.438,3.601,2.97"/>
	<path fill="none" stroke="#EFEFEF" d="M52.834,82.737c-3.135,1.448-4.358,0.438-3.601-2.97"/>
</g>
<path fill="none" stroke="#EFEFEF" d="M24.328,108.126l2.603-8.617l8.999-0.188l2.959,8.501l-7.17,5.442L24.328,108.126z"/>
<path fill="none" stroke="#EFEFEF" d="M108.739,53.799l1.33-16.957l14.02,9.631L108.739,53.799z"/>
<path fill="none" stroke="#EFEFEF" d="M245.834,52.075L231.629,33.07l13.686-19.383l22.663,7.025l0.321,23.725L245.834,52.075z"/>
<circle fill="none" stroke="#EFEFEF" cx="218.193" cy="17.734" r="9.93"/>
<circle fill="none" stroke="#EFEFEF" cx="214.301" cy="79.121" r="4.91"/>
<g>
	<path fill="none" stroke="#EFEFEF" d="M214.3,138.302c-1.509,5.479-4.152,6.003-7.786,1.544"/>
	<path fill="none" stroke="#EFEFEF" d="M214.3,138.302c1.51-5.479,4.154-6.003,7.787-1.544"/>
	<path fill="none" stroke="#EFEFEF" d="M198.728,141.391c1.51-5.479,4.153-6.003,7.786-1.544"/>
	<path fill="none" stroke="#EFEFEF" d="M229.872,135.214c-1.51,5.478-4.153,6.003-7.786,1.544"/>
	<path fill="none" stroke="#EFEFEF" d="M229.872,135.213c1.509-5.479,4.154-6.003,7.787-1.544"/>
</g>
<circle fill="none" stroke="#EFEFEF" cx="38.889" cy="135.212" r="4.91"/>
<g>
	<path fill="none" stroke="#EFEFEF" d="M266.334,68.381c3.136-1.448,4.358-0.439,3.602,2.971"/>
	<path fill="none" stroke="#EFEFEF" d="M266.334,68.381c-3.135,1.447-4.358,0.439-3.602-2.971"/>
	<path fill="none" stroke="#EFEFEF" d="M273.536,74.322c3.135-1.448,4.358-0.44,3.601,2.97"/>
	<path fill="none" stroke="#EFEFEF" d="M273.536,74.322c-3.136,1.448-4.358,0.438-3.601-2.971"/>
	<path fill="none" stroke="#EFEFEF" d="M259.133,62.441c3.135-1.448,4.357-0.438,3.601,2.97"/>
	<path fill="none" stroke="#EFEFEF" d="M259.131,62.441c-3.135,1.448-4.358,0.438-3.602-2.97"/>
</g>
<path fill="none" stroke="#EFEFEF" d="M12.422,156.276l-6.398-8.561l6.164-8.729l10.208,3.164l0.145,10.686L12.422,156.276z"/>
<path fill="none" stroke="#EFEFEF" d="M94.418,123.534l21.95,2.896l-13.483,17.561L94.418,123.534z"/>
<path fill="none" stroke="#EFEFEF" d="M162.213,143.991l21.949,2.896l-13.482,17.561L162.213,143.991z"/>
<text transform="matrix(1 0 0 1 119.0532 94.5352)" fill="#E2E2E2" font-family="'Arial-BoldMT'" font-size="16.8326">X</text>
</svg>
