<?xml version="1.0" encoding="utf-8"?>
<!-- Generator: Adobe Illustrator 16.0.0, SVG Export Plug-In . SVG Version: 6.00 Build 0)  -->
<!DOCTYPE svg PUBLIC "-//W3C//DTD SVG 1.1//EN" "http://www.w3.org/Graphics/SVG/1.1/DTD/svg11.dtd">
<svg version="1.1" id="Layer_1" xmlns="http://www.w3.org/2000/svg" xmlns:xlink="http://www.w3.org/1999/xlink" x="0px" y="0px"
	 width="100px" height="100px" viewBox="0 0 100 100" enable-background="new 0 0 100 100" xml:space="preserve">
<g>
	<path fill="#484848" d="M91.366,64.608c0,8.271-6.65,14.977-14.855,14.977H26.184c-8.205,0-14.856-6.705-14.856-14.977V25.667
		c0-8.272,6.651-14.978,14.856-14.978h50.327c8.205,0,14.855,6.706,14.855,14.978V64.608z"/>
	<g>
		<path fill="#E1E1E1" d="M79.53,58.849c0,5.826-4.685,10.549-10.462,10.549H33.625c-5.778,0-10.462-4.723-10.462-10.549V31.425
			c0-5.825,4.684-10.547,10.462-10.547h35.443c5.777,0,10.462,4.722,10.462,10.547V58.849z"/>
		<g>
			<path fill="#484848" d="M70.515,37.1c0,3.269-2.651,5.917-5.919,5.917H38.097c-3.268,0-5.917-2.649-5.917-5.917l0,0
				c0-3.269,2.649-5.918,5.917-5.918h26.499C67.863,31.181,70.515,33.831,70.515,37.1L70.515,37.1z"/>
			<path fill="#484848" d="M63.447,53.175c0,3.27-2.161,5.918-4.827,5.918H37.006c-2.666,0-4.827-2.648-4.827-5.918l0,0
				c0-3.268,2.161-5.917,4.827-5.917H58.62C61.286,47.257,63.447,49.907,63.447,53.175L63.447,53.175z"/>
		</g>
	</g>
	<polygon fill="#E1E1E1" points="41.388,67.296 50.221,89.312 64,67.296 	"/>
</g>
</svg>
