<?xml version="1.0" encoding="utf-8"?>
<!-- Generator: Adobe Illustrator 16.0.0, SVG Export Plug-In . SVG Version: 6.00 Build 0)  -->
<!DOCTYPE svg PUBLIC "-//W3C//DTD SVG 1.1//EN" "http://www.w3.org/Graphics/SVG/1.1/DTD/svg11.dtd">
<svg version="1.1" id="Layer_1" xmlns="http://www.w3.org/2000/svg" xmlns:xlink="http://www.w3.org/1999/xlink" x="0px" y="0px"
	 width="100px" height="100px" viewBox="0 0 100 100" enable-background="new 0 0 100 100" xml:space="preserve">
<g>
	<g>
		<rect x="22.027" y="65.512" fill="#FFFFFF" width="55.96" height="10.726"/>
		<g>
			<circle fill="#FFFFFF" cx="49.949" cy="77.442" r="9.288"/>
			<g>
				<path fill="#FFFFFF" d="M71.146,67.534c0.015-0.288,0.099-0.562,0.099-0.853V43.209c0-10.344-9.534-18.73-21.29-18.73
					c-11.767,0-21.297,8.386-21.297,18.73v23.472c0,0.291,0.08,0.564,0.095,0.853H71.146z"/>
				<path fill="#FFFFFF" d="M54.771,38.466c0,2.663-2.157,4.82-4.82,4.82l0,0c-2.663,0-4.819-2.157-4.819-4.82V23.078
					c0-2.661,2.156-4.818,4.819-4.818l0,0c2.663,0,4.82,2.157,4.82,4.818V38.466z"/>
			</g>
		</g>
	</g>
	<path fill="#FFFFFF" d="M62.472,17.584c0,0,0.889-6.058,7.912-2.747c7.031,3.313,10.904,8.803,11.877,14.861
		c0.969,6.059-6.263,6.782-7.556,3.408c-1.29-3.37-3.552-10.337-9.65-11.404c0,0-2.503-0.969-2.583-3.796"/>
	<path fill="#FFFFFF" d="M19.655,35.732c0,0-6.105,0.492-4.452-7.095c1.654-7.596,6.135-12.6,11.822-14.905
		c5.69-2.301,8.015,4.584,5.017,6.599c-2.995,2.015-9.279,5.78-8.955,11.962c0,0-0.379,2.656-3.118,3.368"/>
</g>
</svg>
