<?xml version="1.0" encoding="utf-8"?>
<!-- Generator: Adobe Illustrator 16.0.0, SVG Export Plug-In . SVG Version: 6.00 Build 0)  -->
<!DOCTYPE svg PUBLIC "-//W3C//DTD SVG 1.1//EN" "http://www.w3.org/Graphics/SVG/1.1/DTD/svg11.dtd">
<svg version="1.1" id="Layer_1" xmlns="http://www.w3.org/2000/svg" xmlns:xlink="http://www.w3.org/1999/xlink" x="0px" y="0px"
	 width="100px" height="100px" viewBox="0 0 100 100" enable-background="new 0 0 100 100" xml:space="preserve">
<g>
	<path fill="#E1E1E1" d="M14.639,8.89c0,0,31.328,12.386,72.978,0c0,0-4.493,29.871,0,56.828c0,0-45.171-16.149-72.371-0.728
		C15.246,64.99,18.768,20.667,14.639,8.89z"/>
	<g>
		<g>
			<path fill="#484848" d="M8.55,91.597c0,0-1.7-10.701,4.614-11.43s19.429-1.82,21.371,2.429c1.943,4.25,0.972,9.001,0.972,9.001
				L8.342,92.067"/>
			<ellipse fill="#484848" cx="22.636" cy="71.788" rx="3.643" ry="4.372"/>
		</g>
		<g>
			<path fill="#484848" d="M66.714,91.069c0,0-1.699-10.7,4.614-11.429c6.315-0.729,19.429-1.821,21.372,2.429
				c1.942,4.25,0.971,9,0.971,9L66.506,91.54"/>
			<ellipse fill="#484848" cx="80.8" cy="71.263" rx="3.643" ry="4.371"/>
		</g>
		<g>
			<path fill="#484848" d="M37.622,91.333c0,0-1.7-10.701,4.614-11.43c6.313-0.729,19.429-1.82,21.371,2.43s0.972,9,0.972,9
				l-27.165,0.471"/>
			<ellipse fill="#484848" cx="51.708" cy="71.525" rx="3.643" ry="4.372"/>
		</g>
	</g>
</g>
</svg>
