<?xml version="1.0" encoding="utf-8"?>
<!-- Generator: Adobe Illustrator 16.0.0, SVG Export Plug-In . SVG Version: 6.00 Build 0)  -->
<!DOCTYPE svg PUBLIC "-//W3C//DTD SVG 1.1//EN" "http://www.w3.org/Graphics/SVG/1.1/DTD/svg11.dtd">
<svg version="1.1" id="Layer_1" xmlns="http://www.w3.org/2000/svg" xmlns:xlink="http://www.w3.org/1999/xlink" x="0px" y="0px"
	 width="100px" height="100px" viewBox="0 0 100 100" enable-background="new 0 0 100 100" xml:space="preserve">
<g>
	<g>
		<path fill="#FFFFFF" d="M98.919,57.646L75.918,34.646V19.478c0-1.892-1.532-3.423-3.424-3.423c-1.893,0-3.424,1.531-3.424,3.423
			v8.325L52.847,11.575c-1.336-1.337-3.503-1.337-4.837,0L1.937,57.646c-1.338,1.338-1.338,3.504,0,4.84
			c1.334,1.336,3.502,1.336,4.838,0l43.653-43.654l43.651,43.654c0.668,0.663,1.549,1.005,2.423,1.005
			c0.868,0,1.749-0.336,2.417-1.005C100.256,61.146,100.256,58.984,98.919,57.646z"/>
		<path fill="#FFFFFF" d="M89.125,61.574L52.847,25.291c-0.644-0.641-1.512-1.002-2.422-1.002c-0.907,0-1.777,0.361-2.418,1.002
			l-36.28,36.284c-0.484,0.479-0.81,1.097-0.94,1.767c-0.102,0.524-0.151,1.054-0.151,1.569v17.708c0,4.56,3.711,8.274,8.271,8.274
			h17.709c2.294,0,4.506-0.969,6.068-2.661c1.421-1.536,2.203-3.529,2.203-5.615V69.612c0-3.156,2.419-5.794,5.545-6.089
			c3.124,0.295,5.542,2.933,5.542,6.089v13.004c0,2.086,0.788,4.079,2.205,5.615c1.562,1.692,3.779,2.661,6.07,2.661h17.708
			c4.562,0,8.276-3.71,8.276-8.276V64.915c0-0.521-0.052-1.048-0.151-1.567C89.943,62.671,89.612,62.054,89.125,61.574z"/>
	</g>
</g>
</svg>
