<?xml version="1.0" encoding="utf-8"?>
<!-- Generator: Adobe Illustrator 16.0.0, SVG Export Plug-In . SVG Version: 6.00 Build 0)  -->
<!DOCTYPE svg PUBLIC "-//W3C//DTD SVG 1.1//EN" "http://www.w3.org/Graphics/SVG/1.1/DTD/svg11.dtd">
<svg version="1.1" id="Layer_1" xmlns="http://www.w3.org/2000/svg" xmlns:xlink="http://www.w3.org/1999/xlink" x="0px" y="0px"
	 width="100px" height="100px" viewBox="0 0 100 100" enable-background="new 0 0 100 100" xml:space="preserve">
<g>
	<path fill="#E1E1E1" d="M42.28,54.942c0,0-14.217-6.6-16.375,9.647C23.748,80.838,30.094,89.068,45.2,87.556
		c15.105-1.514,38.588-12.05,38.588-12.05s3.048-1.014,0.763-5.584c-2.285-4.571-9.14-7.362-12.059-5.077
		c-2.921,2.284-6.347,5.518-7.617,7.422c-1.27,1.904-0.957,3.174-9.427,3.619c-8.471,0.443-18.436,2.03-20.34-3.936
		c-1.904-5.967,6.664-1.841,7.552-1.65c0.889,0.19,16.123,4.633,18.788-0.571c2.666-5.205,0.189-9.076-4.507-9.837
		C52.245,59.129,42.28,54.942,42.28,54.942z"/>
	<polygon fill="#474747" points="9.467,47.133 23.367,52.147 20.32,80.581 6.865,80.581 	"/>
	<polygon fill="#E1E1E1" points="66.925,21.236 68.675,21.236 69.357,33.202 79.669,33.202 79.669,35.586 67.265,35.586 	"/>
	<circle fill="none" stroke="#E1E1E1" stroke-width="6" stroke-miterlimit="10" cx="73.298" cy="28.411" r="19.04"/>
</g>
</svg>
