<?xml version="1.0" encoding="utf-8"?>
<!-- Generator: Adobe Illustrator 16.0.0, SVG Export Plug-In . SVG Version: 6.00 Build 0)  -->
<!DOCTYPE svg PUBLIC "-//W3C//DTD SVG 1.1//EN" "http://www.w3.org/Graphics/SVG/1.1/DTD/svg11.dtd">
<svg version="1.1" id="Layer_1" xmlns="http://www.w3.org/2000/svg" xmlns:xlink="http://www.w3.org/1999/xlink" x="0px" y="0px"
	 width="100px" height="100px" viewBox="0 0 100 100" enable-background="new 0 0 100 100" xml:space="preserve">
<g>
	<g>
		<path fill="#FFFFFF" d="M52.762,53.958c2.933-4.167,7.766-6.901,13.249-6.901c8.967,0,16.218,7.273,16.218,16.22
			c0,3.158-0.911,6.095-2.468,8.586c-0.013,0.07-0.054,0.147-0.129,0.232c-0.016,0.018-0.036,0.046-0.051,0.063
			c-0.37,0.565-0.776,1.105-1.209,1.612c-0.741,1.098-1.649,2.558-2.616,4.164c0.917,0.909,1.787,1.765,2.611,2.573
			c1.292-2.15,2.51-4.112,3.494-5.569c0.559-0.654,1.073-1.344,1.547-2.067c0.021-0.024,0.047-0.063,0.071-0.082
			c0.099-0.106,0.148-0.205,0.161-0.298c1.998-3.193,3.17-6.96,3.17-11.01c0-11.475-9.306-20.801-20.807-20.801
			c-7.051,0-13.27,3.526-17.028,8.901C50.167,50.994,51.431,52.459,52.762,53.958z"/>
		<path fill="#FFFFFF" d="M73.258,82.159c-2.461,4.22-4.775,8.282-5.417,9.032c-1.292,1.52-3.792,1.823-5.465-2.655
			c-1.669-4.483-9.721-15.947-9.721-15.947v-0.136c-1.808-2.604-2.849-5.768-2.849-9.177c0-0.418,0.031-0.828,0.062-1.237
			c-1.537-1.589-2.968-3.109-4.26-4.512c-0.246,1.281-0.386,2.6-0.386,3.954c0,4.369,1.343,8.431,3.658,11.768v0.174
			c0,0,10.323,14.705,12.468,20.454c2.142,5.743,5.356,5.356,7.015,3.405c0.903-1.063,4.433-7.312,7.938-13.288
			C75.297,83.436,74.281,82.815,73.258,82.159z"/>
	</g>
	<path fill="#FFFFFF" d="M44.691,43.087c0,0,26.737,31.774,39.885,41.71c0,0-35.795-25.277-44.416-37.55L44.691,43.087z"/>
	<path fill="#FFFFFF" d="M18.634,21.47c0,0-8.959-9.291-6.15-13.74c2.809-4.448,11.061,5.986,12.626,8.539l20.145-1.933l1.606,4.362
		l-14.737,6.181l6.729,8.376l7.355-2.303l2.768,4.015l-9.369,5.814l-7.34,7.606l-2.701-3.922l2.813-6.011l-6.714-8.361L15.517,43.87
		l-4.329-4.644L18.634,21.47z"/>
</g>
</svg>
