<?xml version="1.0" encoding="utf-8"?>
<!-- Generator: Adobe Illustrator 16.0.0, SVG Export Plug-In . SVG Version: 6.00 Build 0)  -->
<!DOCTYPE svg PUBLIC "-//W3C//DTD SVG 1.1//EN" "http://www.w3.org/Graphics/SVG/1.1/DTD/svg11.dtd">
<svg version="1.1" id="Layer_1" xmlns="http://www.w3.org/2000/svg" xmlns:xlink="http://www.w3.org/1999/xlink" x="0px" y="0px"
	 width="100px" height="100px" viewBox="0 0 100 100" enable-background="new 0 0 100 100" xml:space="preserve">
<path fill="none" stroke="#E1E1E1" stroke-width="10" d="M79.402,80.626c0,3.683-2.985,6.668-6.667,6.668H15.128
	c-3.683,0-6.668-2.985-6.668-6.668V23.019c0-3.683,2.985-6.668,6.668-6.668h57.607c3.682,0,6.667,2.985,6.667,6.668V80.626z"/>
<path fill="#E1E1E1" d="M96.604,11.906L98,41.793c0,0-37.041,32.093-38.266,46.301c0,0-18.986-25.724-31.235-27.806L48.344,44.61
	l10.165,22.17c0,0,19.599-51.934,37.481-54.875"/>
</svg>
