<?xml version="1.0" encoding="utf-8"?>
<!-- Generator: Adobe Illustrator 16.0.0, SVG Export Plug-In . SVG Version: 6.00 Build 0)  -->
<!DOCTYPE svg PUBLIC "-//W3C//DTD SVG 1.1//EN" "http://www.w3.org/Graphics/SVG/1.1/DTD/svg11.dtd">
<svg version="1.1" id="Layer_1" xmlns="http://www.w3.org/2000/svg" xmlns:xlink="http://www.w3.org/1999/xlink" x="0px" y="0px"
	 width="100px" height="100px" viewBox="0 0 100 100" enable-background="new 0 0 100 100" xml:space="preserve">
<g>
	<path fill="#474747" d="M86.134,83.726c0,5.033-4.08,9.114-9.113,9.114H31.329c-5.034,0-9.114-4.081-9.114-9.114V17.62
		c0-5.034,4.08-9.114,9.114-9.114h45.691c5.033,0,9.113,4.081,9.113,9.114V83.726z"/>
	<path fill="#E2E2E2" d="M49.689,34.166c0,0,3.584-3.342,6.805-0.425s3.706,8.081,0.729,9.296c-2.977,1.215-6.986,2.673-3.706,7.291
		c3.282,4.618,5.591,8.993,9.966,7.354c4.375-1.642,4.01-3.099,7.048-1.398c3.037,1.7,8.02,9.601,2.49,11.424
		c-5.528,1.822-18.469,3.826-27.038-16.042C45.982,51.664,41.79,43.644,49.689,34.166z"/>
	<g>
		<g>
			<circle fill="#E2E2E2" cx="32.544" cy="29.954" r="4.739"/>
			<rect x="12.737" y="26.125" fill="#E2E2E2" width="18.47" height="1.823"/>
			<rect x="12.737" y="32.202" fill="#E2E2E2" width="18.47" height="1.823"/>
		</g>
		<g>
			<circle fill="#E2E2E2" cx="32.666" cy="43.807" r="4.739"/>
			<rect x="12.858" y="39.979" fill="#E2E2E2" width="18.472" height="1.823"/>
			<rect x="12.858" y="46.054" fill="#E2E2E2" width="18.472" height="1.823"/>
		</g>
		<g>
			<circle fill="#E2E2E2" cx="32.666" cy="57.174" r="4.739"/>
			<rect x="12.858" y="53.345" fill="#E2E2E2" width="18.472" height="1.823"/>
			<rect x="12.858" y="59.422" fill="#E2E2E2" width="18.472" height="1.821"/>
		</g>
		<g>
			<circle fill="#E2E2E2" cx="32.545" cy="71.392" r="4.739"/>
			<rect x="12.737" y="67.563" fill="#E2E2E2" width="18.47" height="1.824"/>
			<rect x="12.737" y="73.641" fill="#E2E2E2" width="18.47" height="1.822"/>
		</g>
	</g>
</g>
</svg>
