<?xml version="1.0" encoding="utf-8"?>
<!-- Generator: Adobe Illustrator 16.0.0, SVG Export Plug-In . SVG Version: 6.00 Build 0)  -->
<!DOCTYPE svg PUBLIC "-//W3C//DTD SVG 1.1//EN" "http://www.w3.org/Graphics/SVG/1.1/DTD/svg11.dtd">
<svg version="1.1" id="Layer_1" xmlns="http://www.w3.org/2000/svg" xmlns:xlink="http://www.w3.org/1999/xlink" x="0px" y="0px"
	 width="100px" height="100px" viewBox="0 0 100 100" enable-background="new 0 0 100 100" xml:space="preserve">
<path fill="#363636" d="M11.269,57.19c0,0,1.931-14.023,12.465-14.023s11.374,0,11.374,0l6.7,21.345H24.825
	c0,0-5.609-1.09-5.453,6.544c0.156,7.635-0.312,27.11-0.312,27.11h-7.791c0,0-10.906-0.624-5.92-19.009
	C10.334,60.772,11.269,57.19,11.269,57.19z"/>
<path fill="#363636" d="M89.482,57.19c0,0-2.108-14.023-13.608-14.023c-11.501,0-12.418,0-12.418,0l-7.315,21.345h18.542
	c0,0,6.124-1.09,5.955,6.544c-0.171,7.635,0.339,27.11,0.339,27.11h8.506c0,0,11.908-0.624,6.465-19.009
	C90.503,60.772,89.482,57.19,89.482,57.19z"/>
<path fill="#363636" d="M77.643,97.203c0,0.533-0.419,0.964-0.936,0.964H23.11c-0.516,0-0.935-0.431-0.935-0.964V67.969
	c0-0.532,0.418-0.962,0.935-0.962h53.597c0.517,0,0.936,0.43,0.936,0.962V97.203z"/>
<circle fill="#363636" cx="50.143" cy="22.835" r="20.332"/>
</svg>
