<?xml version="1.0" encoding="utf-8"?>
<!-- Generator: Adobe Illustrator 16.0.0, SVG Export Plug-In . SVG Version: 6.00 Build 0)  -->
<!DOCTYPE svg PUBLIC "-//W3C//DTD SVG 1.1//EN" "http://www.w3.org/Graphics/SVG/1.1/DTD/svg11.dtd">
<svg version="1.1" id="Layer_1" xmlns="http://www.w3.org/2000/svg" xmlns:xlink="http://www.w3.org/1999/xlink" x="0px" y="0px"
	 width="100px" height="100px" viewBox="0 0 100 100" enable-background="new 0 0 100 100" xml:space="preserve">
<path fill="#FFFFFF" d="M45.488,53.691c0,0-16.654-7.731-19.181,11.3c-2.528,19.032,4.906,28.674,22.601,26.901
	c17.693-1.773,45.2-14.114,45.2-14.114s3.57-1.188,0.895-6.541c-2.678-5.354-10.707-8.623-14.126-5.947
	c-3.422,2.676-7.435,6.463-8.922,8.693s-1.122,3.718-11.042,4.239c-9.923,0.52-21.595,2.378-23.826-4.609
	c-2.23-6.988,7.805-2.156,8.846-1.934c1.042,0.224,18.885,5.427,22.007-0.669c3.123-6.097,0.222-10.632-5.278-11.523
	C57.16,58.595,45.488,53.691,45.488,53.691z"/>
<polygon fill="#FFFFFF" points="7.051,44.543 23.333,50.417 19.764,83.723 4.003,83.723 "/>
<text transform="matrix(1 0 0 1 51.6133 55.4912)" fill="#FFFFFF" font-family="'MyriadPro-Regular'" font-size="66.5213">₹</text>
</svg>
