<?xml version="1.0" encoding="utf-8"?>
<!-- Generator: Adobe Illustrator 16.0.0, SVG Export Plug-In . SVG Version: 6.00 Build 0)  -->
<!DOCTYPE svg PUBLIC "-//W3C//DTD SVG 1.1//EN" "http://www.w3.org/Graphics/SVG/1.1/DTD/svg11.dtd">
<svg version="1.1" id="Layer_1" xmlns="http://www.w3.org/2000/svg" xmlns:xlink="http://www.w3.org/1999/xlink" x="0px" y="0px"
	 width="100px" height="100px" viewBox="0 0 100 100" enable-background="new 0 0 100 100" xml:space="preserve">
<g>
	<path fill="#FFFFFF" d="M11.841,95.063c0,0-7.088-6.914-1.323-12.019c5.766-5.104,13.988-13.042,25.613-16.634l6.994,26.369
		l5.67-0.188c0,0,3.497-20.605,0-20.511c-3.496,0.096-3.969-5.67-3.969-5.67H57.68c0,0,0,3.119-3.402,5.858
		c0,0-1.702,2.08-1.228,5.578c0.472,3.496,1.605,14.933,1.605,14.933l3.875-0.377l8.224-25.992c0,0,20.035,6.143,26.464,17.201
		c0,0,1.984,7.97-2.458,11.451H11.841z"/>
	<ellipse fill="#FFFFFF" cx="51.682" cy="35.882" rx="18.997" ry="26.654"/>
</g>
</svg>
