<?xml version="1.0" encoding="utf-8"?>
<!-- Generator: Adobe Illustrator 16.0.0, SVG Export Plug-In . SVG Version: 6.00 Build 0)  -->
<!DOCTYPE svg PUBLIC "-//W3C//DTD SVG 1.1//EN" "http://www.w3.org/Graphics/SVG/1.1/DTD/svg11.dtd">
<svg version="1.1" id="Layer_1" xmlns="http://www.w3.org/2000/svg" xmlns:xlink="http://www.w3.org/1999/xlink" x="0px" y="0px"
	 width="100px" height="100px" viewBox="0 0 100 100" enable-background="new 0 0 100 100" xml:space="preserve">
<g>
	<path fill="#FFFFFF" d="M61.597,63.822l0.193-8.247l-5.157-0.117c-0.439-2.515-1.383-4.838-2.648-6.946l3.486-3.04l-5.421-6.218
		l-3.632,3.165c-2.44-1.755-5.277-2.999-8.361-3.539v-5.189h-8.251v5.427c-2.533,0.598-4.85,1.707-6.922,3.147l-3.896-3.698
		L15.31,44.55l3.891,3.693c-1.192,1.913-2.046,4.042-2.566,6.299l-5.467-0.126l-0.188,8.245l5.476,0.125
		c0.385,2.034,1.08,3.956,2.017,5.729l-4.593,4.001l5.42,6.222l4.429-3.861c2.329,1.877,5.068,3.263,8.076,3.975v5.467h8.251V79.09
		c2.979-0.521,5.734-1.688,8.121-3.346l3.856,3.66l5.682-5.98l-3.863-3.666c1.148-1.84,1.973-3.887,2.491-6.056L61.597,63.822z
		 M36.384,74.197c-8.388,0-15.19-6.8-15.19-15.191c0-8.389,6.802-15.19,15.19-15.19c8.39,0,15.191,6.802,15.191,15.19
		C51.575,67.397,44.774,74.197,36.384,74.197z"/>
	<path fill="#FFFFFF" d="M78.254,26.304l0.127-5.385l-3.367-0.076c-0.287-1.643-0.904-3.16-1.732-4.537l2.28-1.985L72.02,10.26
		l-2.374,2.067c-1.59-1.146-3.441-1.958-5.457-2.312V6.627h-5.388v3.545c-1.656,0.39-3.168,1.115-4.521,2.055l-2.546-2.416
		l-3.706,3.908l2.541,2.413c-0.778,1.25-1.337,2.638-1.677,4.114l-3.57-0.082l-0.123,5.385l3.577,0.082
		c0.251,1.327,0.705,2.581,1.317,3.741l-3,2.614l3.541,4.061l2.893-2.522c1.52,1.228,3.309,2.133,5.274,2.599v3.568h5.388v-3.414
		c1.944-0.342,3.744-1.104,5.303-2.186l2.517,2.388l3.713-3.902l-2.521-2.396c0.751-1.202,1.284-2.538,1.626-3.953L78.254,26.304z
		 M61.791,33.082c-5.48,0-9.922-4.441-9.922-9.921s4.441-9.922,9.922-9.922c5.479,0,9.921,4.443,9.921,9.922
		S67.271,33.082,61.791,33.082z"/>
	<path fill="#FFFFFF" d="M88.893,82.486l0.127-5.386l-3.367-0.075c-0.287-1.645-0.905-3.162-1.732-4.539l2.28-1.984l-3.542-4.061
		l-2.374,2.065c-1.59-1.145-3.441-1.957-5.459-2.312v-3.388h-5.387v3.546c-1.655,0.39-3.168,1.113-4.521,2.055l-2.546-2.414
		l-3.704,3.907l2.539,2.411c-0.777,1.251-1.336,2.642-1.675,4.114l-3.57-0.082l-0.123,5.385l3.575,0.082
		c0.252,1.328,0.707,2.582,1.318,3.742l-3,2.613l3.541,4.062l2.892-2.523c1.521,1.228,3.312,2.134,5.274,2.6v3.568h5.387v-3.414
		c1.946-0.343,3.746-1.104,5.305-2.185l2.517,2.388l3.712-3.903l-2.521-2.396c0.751-1.202,1.284-2.537,1.627-3.952L88.893,82.486z
		 M72.43,89.264c-5.481,0-9.924-4.442-9.924-9.921c0-5.479,4.442-9.922,9.924-9.922c5.479,0,9.921,4.442,9.921,9.922
		C82.351,84.821,77.909,89.264,72.43,89.264z"/>
</g>
</svg>
