<?xml version="1.0" encoding="utf-8"?>
<!-- Generator: Adobe Illustrator 16.0.0, SVG Export Plug-In . SVG Version: 6.00 Build 0)  -->
<!DOCTYPE svg PUBLIC "-//W3C//DTD SVG 1.1//EN" "http://www.w3.org/Graphics/SVG/1.1/DTD/svg11.dtd">
<svg version="1.1" id="Layer_1" xmlns="http://www.w3.org/2000/svg" xmlns:xlink="http://www.w3.org/1999/xlink" x="0px" y="0px"
	 width="100px" height="100px" viewBox="0 0 100 100" enable-background="new 0 0 100 100" xml:space="preserve">
<g>
	<polygon fill="#FFFFFF" points="5.565,5.893 5.565,10.107 90.734,10.107 90.734,73.448 5.565,73.448 5.565,77.663 94.435,77.663 
		94.435,5.893 	"/>
	<g>
		<rect x="57.271" y="23.233" fill="#FFFFFF" width="28.419" height="37.089"/>
		<g>
			<rect x="16.872" y="35.159" fill="#FFFFFF" width="34.92" height="4.095"/>
			<rect x="22.108" y="42.505" fill="#FFFFFF" width="29.684" height="4.094"/>
			<rect x="30.297" y="49.61" fill="#FFFFFF" width="21.495" height="4.093"/>
			<rect x="36.951" y="56.228" fill="#FFFFFF" width="14.841" height="4.095"/>
		</g>
	</g>
	<g>
		
			<rect x="42.325" y="75.769" transform="matrix(0.9438 0.3305 -0.3305 0.9438 30.5334 -9.7656)" fill="#FFFFFF" width="3.328" height="18.303"/>
		
			<rect x="52.929" y="75.769" transform="matrix(0.8662 -0.4996 0.4996 0.8662 -35.1255 38.633)" fill="#FFFFFF" width="3.327" height="18.303"/>
	</g>
</g>
</svg>
