<?xml version="1.0" encoding="utf-8"?>
<!-- Generator: Adobe Illustrator 16.0.0, SVG Export Plug-In . SVG Version: 6.00 Build 0)  -->
<!DOCTYPE svg PUBLIC "-//W3C//DTD SVG 1.1//EN" "http://www.w3.org/Graphics/SVG/1.1/DTD/svg11.dtd">
<svg version="1.1" id="Layer_1" xmlns="http://www.w3.org/2000/svg" xmlns:xlink="http://www.w3.org/1999/xlink" x="0px" y="0px"
	 width="100px" height="100px" viewBox="0 0 100 100" enable-background="new 0 0 100 100" xml:space="preserve">
<g>
	<g>
		<polygon fill="#FFFFFF" stroke="#1C1C1C" stroke-width="2" stroke-miterlimit="10" points="16.774,4.84 51.396,4.84 67.71,24.779 
			67.71,80.426 16.774,80.426 		"/>
		<polyline fill="none" stroke="#1C1C1C" stroke-width="2" stroke-miterlimit="10" points="50.292,6.29 51.018,4.84 44.311,28.767 
			67.149,23.69 		"/>
	</g>
	<g>
		<polygon fill="#FFFFFF" stroke="#1C1C1C" stroke-width="2" stroke-miterlimit="10" points="24.547,10.885 59.167,10.885 
			75.481,30.824 75.481,86.472 24.547,86.472 		"/>
		<polyline fill="none" stroke="#1C1C1C" stroke-width="2" stroke-miterlimit="10" points="58.065,12.335 58.79,10.885 
			52.083,34.811 74.921,29.736 		"/>
	</g>
	<polygon fill="#FFFFFF" stroke="#1C1C1C" stroke-width="2" stroke-miterlimit="10" points="32.751,19.521 67.373,19.521 
		83.687,39.46 83.687,95.107 32.751,95.107 	"/>
	<rect x="38.704" y="25.713" fill="#A9A8A8" width="23.316" height="17.735"/>
	<polyline fill="none" stroke="#1C1C1C" stroke-width="2" stroke-miterlimit="10" points="66.269,20.971 66.993,19.521 
		60.288,43.448 83.127,38.373 	"/>
	<g>
		<rect x="38.688" y="51.329" fill="#A9A8A8" width="7.491" height="7.71"/>
		<rect x="48.414" y="51.329" fill="#A9A8A8" width="7.492" height="7.71"/>
		<rect x="58.258" y="51.329" fill="#A9A8A8" width="7.491" height="7.71"/>
		<rect x="67.961" y="51.329" fill="#A9A8A8" width="7.491" height="7.71"/>
	</g>
	<rect x="38.688" y="62.689" fill="#A9A8A8" width="7.491" height="7.71"/>
	<rect x="48.414" y="62.689" fill="#A9A8A8" width="7.492" height="7.71"/>
	<rect x="58.258" y="62.689" fill="#A9A8A8" width="7.491" height="7.71"/>
	<rect x="67.961" y="62.689" fill="#A9A8A8" width="7.491" height="17.857"/>
	<rect x="38.628" y="72.838" fill="#A9A8A8" width="7.491" height="7.709"/>
	<rect x="48.354" y="72.838" fill="#A9A8A8" width="7.493" height="7.709"/>
	<rect x="58.199" y="72.838" fill="#A9A8A8" width="7.491" height="7.709"/>
	<rect x="38.628" y="83.229" fill="#A9A8A8" width="36.824" height="7.709"/>
</g>
</svg>
