<?xml version="1.0" encoding="utf-8"?>
<!-- Generator: Adobe Illustrator 16.0.0, SVG Export Plug-In . SVG Version: 6.00 Build 0)  -->
<!DOCTYPE svg PUBLIC "-//W3C//DTD SVG 1.1//EN" "http://www.w3.org/Graphics/SVG/1.1/DTD/svg11.dtd">
<svg version="1.1" id="Layer_1" xmlns="http://www.w3.org/2000/svg" xmlns:xlink="http://www.w3.org/1999/xlink" x="0px" y="0px"
	 width="100px" height="100px" viewBox="0 0 100 100" enable-background="new 0 0 100 100" xml:space="preserve">
<g>
	<g>
		<path fill="#1E1D1D" d="M86.652,24.902H12.954c-5.057,0-9.155,4.099-9.155,9.156v47.378c0,5.056,4.098,9.154,9.155,9.154h73.699
			c5.059,0,9.155-4.099,9.155-9.154V34.058C95.808,29.001,91.711,24.902,86.652,24.902z M87.472,78.132
			c0,3.594-3.356,6.507-7.496,6.507H19.63c-4.14,0-7.496-2.913-7.496-6.507V44.453c0-3.593,3.356-6.507,7.496-6.507h60.345
			c4.14,0,7.496,2.914,7.496,6.507V78.132z"/>
		<circle fill="#FFFFFF" stroke="#0B0B0B" stroke-width="4" stroke-miterlimit="10" cx="50.245" cy="61.086" r="17.166"/>
	</g>
	<g>
		<g>
			<path fill="#1E1D1D" d="M31.035,26.843c0,3.981-3.228,7.21-7.21,7.21l0,0c-3.981,0-7.209-3.229-7.209-7.21V15.857
				c0-3.982,3.229-7.21,7.209-7.21l0,0c3.982,0,7.21,3.228,7.21,7.21V26.843z"/>
			<g>
				<path fill="#FFFFFF" d="M28.502,24.914c0,2.583-2.095,4.677-4.678,4.677l0,0c-2.583,0-4.678-2.094-4.678-4.677v-7.127
					c0-2.584,2.095-4.679,4.678-4.679l0,0c2.583,0,4.678,2.095,4.678,4.679V24.914z"/>
			</g>
		</g>
		<g>
			<path fill="#1E1D1D" d="M82.992,26.843c0,3.981-3.229,7.21-7.21,7.21l0,0c-3.981,0-7.21-3.229-7.21-7.21V15.857
				c0-3.982,3.229-7.21,7.21-7.21l0,0c3.98,0,7.21,3.228,7.21,7.21V26.843z"/>
			<g>
				<path fill="#FFFFFF" d="M80.458,24.914c0,2.583-2.095,4.677-4.676,4.677l0,0c-2.584,0-4.679-2.094-4.679-4.677v-7.127
					c0-2.584,2.095-4.679,4.679-4.679l0,0c2.581,0,4.676,2.095,4.676,4.679V24.914z"/>
			</g>
		</g>
	</g>
	<g>
		<rect x="41.64" y="64.221" fill="#050606" width="11.216" height="3.423"/>
		<rect x="52.987" y="53.576" fill="#050606" width="2.456" height="14.067"/>
	</g>
</g>
</svg>
