<?xml version="1.0" encoding="utf-8"?>
<!-- Generator: Adobe Illustrator 16.0.0, SVG Export Plug-In . SVG Version: 6.00 Build 0)  -->
<!DOCTYPE svg PUBLIC "-//W3C//DTD SVG 1.1//EN" "http://www.w3.org/Graphics/SVG/1.1/DTD/svg11.dtd">
<svg version="1.1" id="Layer_1" xmlns="http://www.w3.org/2000/svg" xmlns:xlink="http://www.w3.org/1999/xlink" x="0px" y="0px"
	 width="100px" height="100px" viewBox="0 0 100 100" enable-background="new 0 0 100 100" xml:space="preserve">
<g>
	<ellipse fill="#1E1D1D" cx="50" cy="29.025" rx="25.235" ry="23.025"/>
	<path fill="#1E1D1D" d="M16.349,60.081c0,0,6.876-15.008,16.353-9.047c6.295,3.961,23.739,7.29,28.614,2.452
		c4.876-4.838,18.025-4.302,22.081,6.183c4.056,10.484,4.814,28.985-8.52,32.687c-13.336,3.7-42.401,0-42.401,0
		S14.055,93.185,14,79.404C13.951,66.863,16.349,60.081,16.349,60.081z"/>
	<path fill="#FFFFFF" d="M39.92,60.322l-2.678,10.377l9.801,0.652l-2.228-3.659c0,0,4.794-5.535,11.719-1.187
		c7.705,4.834,0.401,17.143-8.699,13.084c-4.814-2.855-6.409-0.93-5.099,1.11c2.525,3.93,17.525,4.472,19.75-5.827
		c2.229-10.298-10.023-17.344-19.082-9.485L39.92,60.322z"/>
</g>
</svg>
