<?xml version="1.0" encoding="utf-8"?>
<!-- Generator: Adobe Illustrator 16.0.0, SVG Export Plug-In . SVG Version: 6.00 Build 0)  -->
<!DOCTYPE svg PUBLIC "-//W3C//DTD SVG 1.1//EN" "http://www.w3.org/Graphics/SVG/1.1/DTD/svg11.dtd">
<svg version="1.1" id="Layer_1" xmlns="http://www.w3.org/2000/svg" xmlns:xlink="http://www.w3.org/1999/xlink" x="0px" y="0px"
	 width="100px" height="100px" viewBox="0 0 100 100" enable-background="new 0 0 100 100" xml:space="preserve">
<g>
	<path fill="#1E1D1D" d="M68.856,2.82H22.252c-3.217,0-5.826,4.261-5.826,9.517v76.129c0,5.255,2.609,9.517,5.826,9.517h46.604
		c3.217,0,5.824-4.262,5.824-9.517V12.337C74.681,7.081,72.073,2.82,68.856,2.82z"/>
	<g>
		<text transform="matrix(1 0 0 1 29.8008 54.2217)" fill="#FFFAFC" font-family="'MyriadPro-Regular'" font-size="61.4121">₹</text>
		<path fill="#FFFFFF" d="M59.302,67.58c0,2.446-1.982,4.431-4.432,4.431H36.234c-2.447,0-4.431-1.984-4.431-4.431l0,0
			c0-2.447,1.984-4.431,4.431-4.431H54.87C57.319,63.149,59.302,65.133,59.302,67.58L59.302,67.58z"/>
		<path fill="#FFFFFF" d="M55.141,81.325c0,2.448-1.384,4.433-3.09,4.433H39.054c-1.706,0-3.09-1.984-3.09-4.433l0,0
			c0-2.444,1.384-4.43,3.09-4.43h12.997C53.757,76.896,55.141,78.881,55.141,81.325L55.141,81.325z"/>
	</g>
</g>
</svg>
