<?xml version="1.0" encoding="utf-8"?>
<!-- Generator: Adobe Illustrator 16.0.0, SVG Export Plug-In . SVG Version: 6.00 Build 0)  -->
<!DOCTYPE svg PUBLIC "-//W3C//DTD SVG 1.1//EN" "http://www.w3.org/Graphics/SVG/1.1/DTD/svg11.dtd">
<svg version="1.1" id="Layer_1" xmlns="http://www.w3.org/2000/svg" xmlns:xlink="http://www.w3.org/1999/xlink" x="0px" y="0px"
	 width="612px" height="792px" viewBox="0 0 612 792" enable-background="new 0 0 612 792" xml:space="preserve">
<rect x="60.839" y="149.897" fill="#EAEAEA" width="491" height="491"/>
<g>
	<path fill="#FDCEA0" d="M244.972,415.184v95.5l46.5,67c0,0,33,0.5,34.5,0s37-70,37-70v-85L244.972,415.184z"/>
	<polygon fill="#DFE3EB" points="254.816,532.379 269.572,640.649 353.073,640.649 367.817,529.572 	"/>
	<path fill="#3F3A3C" d="M79.072,640.897c0,0-15.966-60.5,14.534-81s77.833-43.666,110.666-46.333
		c32.834-2.667,57.334,12.833,59.334,15.833s12,73.667,12,73.667l4.666,37.833H79.072z"/>
	<path fill="#FCBB85" d="M243.972,426.684c0,0,10.5,28,41,42.5s77,10,77,10v-62C361.972,417.184,281.972,435.184,243.972,426.684z"
		/>
	<path fill="#FDCEA0" d="M223.784,374.521c0,0,11.919,66.748,58.779,81.598c5.708,1.809,11.935,2.848,18.72,2.902
		c62.5,0.5,85-71,84.5-84.5c0,0,8.5,2.5,13.5-11s12.5-46,0-57c0,0-14.711-91.524-69.211-78.524
		c-30.11,7.182-63.214,10.891-87.001,36.917c-19.27,21.082-32.288,39.107-32.288,39.107s-12.5-1.5-9.5,21
		S206.284,365.021,223.784,374.521z"/>
	<path fill="#333333" d="M218.405,355.739c0,0,6.547-22.735,5.29-30.321s0.943-60.031,32.058-51.126
		c31.114,8.906,52.172,12.534,69.773,4.947c17.6-7.587,49.342-20.45,53.742,13.194c4.4,33.644,3.207,27.354,4.148,31.971
		c0.943,4.617-2.115,37.496,1.656,42.444c3.771,4.947,3-33.442,7.451-43.41c3.902-8.739,31.059-93.016-23.941-105.55
		s-62.857-29.027-105.602-7.257c-42.743,21.77-46.829,20.78-45.572,41.89C217.409,252.521,199.233,241.284,218.405,355.739z"/>
	<path fill="#3F3A3C" d="M391.739,506.405c0,0,85.459,37.115,99.459,45.115s56,18.664,44.666,89.332l-197.59,0.045
		c0,0,5.592-50.71,8.924-71.377C350.532,548.854,391.739,506.405,391.739,506.405z"/>
	<polygon fill="#6F81A5" points="282.559,542.408 298.26,580.075 280.272,640.897 338.274,640.897 319.073,580.075 332.657,544.041 
		300.073,529.572 	"/>
	<path fill="#363032" d="M196.606,521.897c0,0,67.833,15.5,83.666,119c0,0-5.166-119.28-24.666-127.64c-19.5-8.36-42-3.36-42-3.36
		L196.606,521.897z"/>
	<path fill="#FFFFFF" d="M264.822,536.157c0,0-6.04,23.927,13,12.752c19.405-11.389,37.573-15.982,56.501,4.46l24.5,22l8.994-23.297
		l12.006-61.203c0,0-59.875,80.675-139.001,5.5L264.822,536.157z"/>
	<path fill="#3F3A3C" d="M243.606,472.231l-39.334,41.333c0,0,44,5.333,55.334,24.666c11.334,19.334,18,78,20.666,102.667
		C280.272,640.897,296.272,508.897,243.606,472.231z"/>
	<polygon fill="#363032" points="112.419,640.897 119.752,610.23 132.085,640.897 	"/>
	<path fill="#363032" d="M338.317,640.649c0,0,49.035-130.299,71.035-126.549c0,0-15.293-9.878-31.279-7.695
		C349.573,510.295,338.317,640.649,338.317,640.649z"/>
	<path fill="#3F3A3C" d="M362.274,472.231c0,0-41.334,96.666-24,168.666c0,0,24-141.333,63.332-129.333
		C401.606,511.564,382.94,480.231,362.274,472.231z"/>
	<polyline fill="#363032" points="477.851,640.649 501.356,640.649 484.856,603.085 477.851,639.835 	"/>
</g>
</svg>
