<?xml version="1.0" encoding="utf-8"?>
<!-- Generator: Adobe Illustrator 16.0.0, SVG Export Plug-In . SVG Version: 6.00 Build 0)  -->
<!DOCTYPE svg PUBLIC "-//W3C//DTD SVG 1.1//EN" "http://www.w3.org/Graphics/SVG/1.1/DTD/svg11.dtd">
<svg version="1.1" id="Layer_1" xmlns="http://www.w3.org/2000/svg" xmlns:xlink="http://www.w3.org/1999/xlink" x="0px" y="0px"
	 width="800px" height="600px" viewBox="0 0 800 600" enable-background="new 0 0 800 600" xml:space="preserve">
<path fill="#282A3B" d="M594.348,121.014h92.492c0,0,4.512-90.989-64.669-93.997c-69.181-3.007-372.228,0-372.228,0
	s-70.686-10.528-73.694,67.678c-3.008,78.205,2.255,361.7,2.255,361.7h-57.901c0,0-12.784,100.014,72.19,100.014
	c84.973,0,342.27,0,342.27,0s31.097-0.501,31.664-14.943c0.565-14.442,26.868-51.23,26.868-51.23l-0.751-221.082L594.348,121.014z"
	/>
<path fill="#FFFFFF" stroke="#000000" stroke-miterlimit="10" d="M546.475,186.071c0,2.635-2.136,4.771-4.771,4.771h-12.37
	c-2.635,0-4.771-2.136-4.771-4.771l0,0c0-2.635,2.137-4.771,4.771-4.771h12.37C544.339,181.3,546.475,183.437,546.475,186.071
	L546.475,186.071z"/>
<path fill="#E9EAF5" stroke="#292A3B" stroke-width="11" stroke-miterlimit="10" d="M201.065,88.68c0,0-2.256-40.607,43.614-40.607
	H575.24V460.06c0,0-117.752,119.658-186.934-4.417l-187.26,0.754L201.065,88.68z"/>
<circle opacity="0.5" fill="#606DB3" cx="270.341" cy="132.635" r="20.303"/>
<path opacity="0.5" fill="#606DB3" d="M502.605,135.451c0,7.809-6.329,14.138-14.135,14.138H335.518
	c-7.809,0-14.138-6.329-14.138-14.138v-8.981c0-7.809,6.329-14.138,14.138-14.138h152.953c7.806,0,14.135,6.329,14.135,14.138
	V135.451z"/>
<circle opacity="0.5" fill="#606DB3" cx="270.341" cy="211.146" r="20.303"/>
<path opacity="0.5" fill="#606DB3" d="M502.605,213.962c0,7.808-6.329,14.137-14.135,14.137H335.518
	c-7.809,0-14.138-6.33-14.138-14.137v-8.983c0-7.808,6.329-14.137,14.138-14.137h152.953c7.806,0,14.135,6.329,14.135,14.137
	V213.962z"/>
<circle opacity="0.5" fill="#606DB3" cx="270.341" cy="291.044" r="20.303"/>
<path opacity="0.5" fill="#606DB3" d="M502.605,293.861c0,7.806-6.329,14.137-14.135,14.137H335.518
	c-7.809,0-14.138-6.331-14.138-14.137v-8.983c0-7.808,6.329-14.137,14.138-14.137h152.953c7.806,0,14.135,6.329,14.135,14.137
	V293.861z"/>
<circle opacity="0.5" fill="#606DB3" cx="270.341" cy="362.644" r="20.303"/>
<path opacity="0.5" fill="#606DB3" d="M502.605,365.461c0,7.808-6.329,14.137-14.135,14.137H335.518
	c-7.809,0-14.138-6.329-14.138-14.137v-8.983c0-7.808,6.329-14.137,14.138-14.137h152.953c7.806,0,14.135,6.329,14.135,14.137
	V365.461z"/>
<path opacity="0.1" fill="#606DB3" d="M444.379,57.109H565.62l2.27,232.26h-7.378c0,0-3.973-210.691-17.029-216.367
	C530.427,67.327,444.379,57.109,444.379,57.109z"/>
<circle fill="#E9EAF5" cx="521.929" cy="404.142" r="143.843"/>
<path opacity="0.05" fill="#606DB3" d="M667.475,404.142c0,79.439-64.403,143.841-143.843,143.841
	c-32.218,0-61.95-10.592-85.926-28.472c59.566-70.276,96.842-160.069,100.878-258.427
	C610.989,268.542,667.475,329.742,667.475,404.142z"/>
<g>
	<path fill="#2A2B3C" d="M451.547,424.491c-1.623,3.544-5.814,5.1-9.363,3.479l-8.095-3.708c-3.546-1.623-5.103-5.814-3.479-9.357
		l22.374-48.85c1.616-3.544,5.813-5.101,9.355-3.476l8.096,3.707c3.549,1.624,5.104,5.812,3.479,9.358L451.547,424.491z"/>
	<path fill="#FFFFFF" d="M449.358,415.246c0,4.014-3.257,7.27-7.271,7.27c-4.008,0-7.264-3.256-7.264-7.27
		c0-4.012,3.256-7.265,7.264-7.265C446.102,407.981,449.358,411.234,449.358,415.246z"/>
	<path fill="#F99C1C" d="M575.898,371.652c-1.576-3.568,0.04-7.736,3.609-9.31l8.148-3.595c3.565-1.575,7.735,0.041,9.311,3.608
		l21.684,49.153c1.574,3.568-0.042,7.736-3.609,9.311l-8.146,3.594c-3.568,1.575-7.737-0.043-9.311-3.611L575.898,371.652z"/>
	<circle fill="#FFFFFF" cx="606.647" cy="412.461" r="7.266"/>
	<path fill="#F3AA78" d="M506.005,391.583c0,0-11.298,8.67-1.377,17.554c9.925,8.88,20.574-3.126,20.574-3.126
		s12.562-9.719,20.73-2.574c8.17,7.143,17.305,15.221,17.305,15.221l17.317,16.013l11.96-7.266l-20.095-48.851
		c0,0-0.378-1.505-6.596-2.593c-6.218-1.086-11.825-3.196-15.768-4.224c-3.944-1.031-13.432-3.12-20.231,0.901
		C523.021,376.659,506.005,391.583,506.005,391.583z"/>
	<path fill="#F3AA78" d="M472.42,391.583l6.559-15.196c0,0,4.616,2.532,18.279-2.215c13.659-4.748,21.232-2.325,22.29-0.511
		c1.062,1.817-17.837,17.125-17.837,17.125s-12.751,9.993-2.302,21.187c10.45,11.193,18.104,3.653,20.186,3.791
		c2.072,0.137,14.338-9.552,14.338-9.552s4.503-3.484,7.701,0.225c3.196,3.71,38.921,33.076,38.921,33.076s-2.395,8.755-13.99,5.364
		c0,0-1.602,12.168-15.375,9.459c0,0-2.573,13.335-16.048,9.854c0,0-1.515,13.775-14.686,7.418l11.019-10.154
		c0,0,9.118-16.337-11.927-16.945c0,0-3.632-13.318-15.897-9.991c0,0-3.023-11.351-14.229-9.232c0,0,0.878-13.267-14.624-9.436
		l-13.989,11.47l-2.873-2.186L472.42,391.583z"/>
	<path fill="#F3AA78" d="M483.9,418.492c2.022,2.116,1.946,5.47-0.166,7.492l-15.1,14.438c-2.115,2.021-5.468,1.947-7.493-0.168l0,0
		c-2.019-2.115-1.945-5.471,0.17-7.493l15.096-14.437C478.526,416.305,481.882,416.377,483.9,418.492L483.9,418.492z"/>
	<path fill="#F3AA78" d="M496.749,431.01c2.025,2.115,1.949,5.468-0.166,7.491l-15.101,14.435c-2.111,2.024-5.467,1.949-7.493-0.166
		l0,0c-2.019-2.115-1.945-5.468,0.173-7.491l15.097-14.437C491.374,428.819,494.73,428.895,496.749,431.01L496.749,431.01z"/>
	<path fill="#F3AA78" d="M511.732,441.82c2.025,2.115,1.948,5.472-0.163,7.493l-15.104,14.437c-2.115,2.023-5.468,1.947-7.489-0.166
		l0,0c-2.022-2.115-1.949-5.472,0.166-7.492l15.1-14.439C506.357,439.632,509.71,439.705,511.732,441.82L511.732,441.82z"/>
	<path fill="#F3AA78" d="M525.079,452.638c2.023,2.115,1.947,5.468-0.166,7.492l-15.104,14.439c-2.115,2.021-5.468,1.945-7.49-0.172
		l0,0c-2.021-2.115-1.945-5.468,0.167-7.489l15.103-14.438C519.701,450.446,523.057,450.524,525.079,452.638L525.079,452.638z"/>
</g>
</svg>
