<?xml version="1.0" encoding="utf-8"?>
<!-- Generator: Adobe Illustrator 16.0.0, SVG Export Plug-In . SVG Version: 6.00 Build 0)  -->
<!DOCTYPE svg PUBLIC "-//W3C//DTD SVG 1.1//EN" "http://www.w3.org/Graphics/SVG/1.1/DTD/svg11.dtd">
<svg version="1.1" id="Layer_1" xmlns="http://www.w3.org/2000/svg" xmlns:xlink="http://www.w3.org/1999/xlink" x="0px" y="0px"
	 width="800px" height="600px" viewBox="0 0 800 600" enable-background="new 0 0 800 600" xml:space="preserve">
<polygon fill="#ED1C24" points="66.494,349.218 33.075,522.922 208.187,485.498 160.064,442.721 360.573,250.231 459.492,349.218 
	724.054,85.813 678.714,35.017 464.839,255.604 357.9,149.912 113.279,391.923 "/>
<path opacity="0.08" d="M692.851,536.135c0,27.604-93.877,49.969-209.682,49.969s-209.681-22.364-209.681-49.969
	c0-27.598,93.876-49.962,209.681-49.962S692.851,508.537,692.851,536.135z"/>
<g>
	<path fill="#F99C1C" d="M497.875,275.716c0,0,37.251-39.448,52.545-29.817c15.297,9.632,3.339,42.074,2.217,43.202
		C551.516,290.234,497.875,275.716,497.875,275.716z"/>
	<path fill="#C57929" d="M501.574,274.028c0,0,34.37-36.126,49.664-26.494c15.296,9.632,16.783,39.779,15.664,40.91
		C565.777,289.574,501.574,274.028,501.574,274.028z"/>
	<path fill="#F99C1C" d="M486.091,299.282c0,0,33.493-10.719,51.312,10.053c17.817,20.771,25.021,33.993,12.509,52.275
		c-12.509,18.288-70.399,70.826-50.765,114.087c16.628,36.638,40.882,49.544,84.58,54.361s77.736-35.136,79.749-71.893
		c2.019-36.755-15.521-92.764-73.509-120.179c0,0-9.152-16.497-8.957-27.788c0.196-11.288-3.389-48.856-29.771-62.666
		c0,0,12.41,26.335-27.456,23.997C483.923,269.194,486.795,294.237,486.091,299.282z"/>
	<path opacity="0.2" fill="#C57929" d="M594.89,530.456c0,0-55.051,5.054-83.603-33.947c-28.554-39-11.642-63.993-8.25-70.587
		c3.387-6.597,13.188-22.167,13.188-22.167s-9.941,55.208,28.709,81.775c0,0,2.475-12.437-2.612-24.589
		C542.321,460.941,577.65,529.027,594.89,530.456z"/>
	<path opacity="0.2" fill="#C57929" d="M486.091,299.282c0,0,41.808-18.837,64.329,28.312c0,0-4.219-38.727-22.521-47.149
		c0,0,2.445,3.479,4.336,10.263C532.234,290.708,504.761,276.583,486.091,299.282z"/>
	<path opacity="0.2" fill="#C57929" d="M574.86,335.499c0,0,26.719,12.851,30.864,48.276c0,0,6.673-9.419,1.885-24.14
		c0,0,58.41,97.25,24.496,126.643c0,0,23.447-13.021,22.231-48.238c0,0,1.031,46.941-11.732,68.124c0,0,29.922-29.185,18.942-75.597
		c-10.979-46.416-38.519-70.436-38.519-70.436l-36.17-26.474L574.86,335.499z"/>
	<path fill="#B92726" d="M584.618,328.151c0,0,5.442-6.646-0.634-10.911c-6.08-4.26-28.338,4.493-33.564,10.354
		c-5.229,5.86-4.511,9.062,1.8,11.647C552.22,339.241,562.208,332.367,584.618,328.151z"/>
	<path fill="#871719" d="M588.906,335.972c0,0,5.445-6.643-0.631-10.908c-6.076-4.263-28.338,4.487-33.567,10.348
		c-5.226,5.86-4.507,9.065,1.8,11.65C556.508,347.062,566.496,340.188,588.906,335.972z"/>
	<path opacity="0.2" fill="#C57929" d="M551.238,247.534c0,0,20.104,10.643,27.268,40.968c0,0-15.428-35.125-27.268-25.318
		C551.238,263.184,553.955,255.54,551.238,247.534z"/>
	<g>
		<text transform="matrix(1.0691 0 0 1 549.4883 464.2559)" fill="#262323" font-family="'NEWSFLASH'" font-size="85.788">$</text>
	</g>
</g>
<g>
	<circle fill="#FED73C" cx="579.461" cy="523.783" r="36.646"/>
	<circle fill="#FDC010" cx="579.462" cy="523.783" r="29.974"/>
</g>
<g>
	<circle fill="#FED73C" cx="663.968" cy="493.81" r="36.645"/>
	<path fill="#FDC010" d="M693.939,493.81c0,16.556-13.421,29.974-29.974,29.974c-16.55,0-29.971-13.418-29.971-29.974
		s13.421-29.974,29.971-29.974C680.519,463.836,693.939,477.254,693.939,493.81z"/>
</g>
<g>
	<circle fill="#FED73C" cx="270.733" cy="506.164" r="36.646"/>
	<circle fill="#FDC010" cx="270.733" cy="506.164" r="29.974"/>
</g>
<g>
	<path fill="#F99C1C" d="M275.68,126.551c0,0,63.59-67.347,89.701-50.904c26.113,16.443,5.702,71.826,3.786,73.755
		C367.252,151.332,275.68,126.551,275.68,126.551z"/>
	<path fill="#C57929" d="M281.995,123.667c0,0,58.675-61.675,84.785-45.232c26.111,16.445,28.653,67.914,26.739,69.844
		C391.603,150.21,281.995,123.667,281.995,123.667z"/>
	<path fill="#F99C1C" d="M255.559,166.78c0,0,57.181-18.298,87.597,17.167c30.42,35.457,42.718,58.029,21.36,89.242
		c-21.36,31.221-120.188,120.92-86.671,194.767c28.392,62.548,69.798,84.587,144.398,92.808
		c74.601,8.227,132.711-59.982,136.149-122.734c3.447-62.752-26.497-158.367-125.495-205.166c0,0-15.627-28.167-15.291-47.445
		c0.333-19.27-5.787-83.406-50.826-106.982c0,0,21.186,44.96-46.87,40.968C251.857,115.416,256.758,158.166,255.559,166.78z"/>
	<path opacity="0.2" fill="#C57929" d="M441.303,561.44c0,0-93.984,8.63-142.729-57.955
		c-48.745-66.579-19.871-109.243-14.083-120.508c5.784-11.259,22.511-37.838,22.511-37.838s-16.967,94.25,49.016,139.608
		c0,0,4.223-21.233-4.461-41.981C351.557,442.767,411.869,559.004,441.303,561.44z"/>
	<path opacity="0.2" fill="#C57929" d="M255.559,166.78c0,0,71.376-32.157,109.822,48.335c0,0-7.199-66.111-38.446-80.492
		c0,0,4.173,5.937,7.4,17.517C334.335,152.139,287.432,128.029,255.559,166.78z"/>
	<path opacity="0.2" fill="#C57929" d="M407.107,228.61c0,0,45.617,21.941,52.693,82.419c0,0,11.391-16.08,3.217-41.211
		c0,0,99.719,166.025,41.816,216.203c0,0,40.032-22.227,37.958-82.349c0,0,1.759,80.134-20.029,116.301
		c0,0,51.078-49.827,32.337-129.062c-18.743-79.24-65.761-120.248-65.761-120.248l-61.747-45.199L407.107,228.61z"/>
	<path fill="#B92726" d="M423.766,216.067c0,0,9.292-11.345-1.082-18.625c-10.379-7.274-48.379,7.667-57.303,17.673
		c-8.925,10.001-7.701,15.469,3.073,19.885C368.454,235,385.505,223.266,423.766,216.067z"/>
	<path fill="#871719" d="M431.089,229.417c0,0,9.293-11.342-1.081-18.623c-10.373-7.274-48.375,7.665-57.302,17.668
		c-8.923,10.003-7.698,15.474,3.073,19.885C375.779,248.347,392.83,236.616,431.089,229.417z"/>
	<path opacity="0.2" fill="#C57929" d="M366.78,78.435c0,0,34.323,18.17,46.55,69.943c0,0-26.337-59.968-46.55-43.224
		C366.78,105.154,371.421,92.104,366.78,78.435z"/>
	<g>
		<text transform="matrix(1.0691 0 0 1 363.792 448.4268)" fill="#262323" font-family="'NEWSFLASH'" font-size="146.4575">$</text>
	</g>
</g>
<g>
	<circle fill="#FED73C" cx="413.33" cy="536.138" r="36.646"/>
	<circle fill="#FDC010" cx="413.33" cy="536.138" r="29.974"/>
</g>
</svg>
