<?xml version="1.0" encoding="utf-8"?>
<!-- Generator: Adobe Illustrator 16.0.0, SVG Export Plug-In . SVG Version: 6.00 Build 0)  -->
<!DOCTYPE svg PUBLIC "-//W3C//DTD SVG 1.1//EN" "http://www.w3.org/Graphics/SVG/1.1/DTD/svg11.dtd">
<svg version="1.1" id="Layer_1" xmlns="http://www.w3.org/2000/svg" xmlns:xlink="http://www.w3.org/1999/xlink" x="0px" y="0px"
	 width="800px" height="600px" viewBox="0 0 800 600" enable-background="new 0 0 800 600" xml:space="preserve">
<polygon fill="#E9EAF5" stroke="#292A3B" stroke-width="11" stroke-miterlimit="10" points="251.392,273.395 309.108,361.123 
	309.108,450.583 392.796,450.583 397.414,365.163 459.171,273.395 "/>
<path fill="#C6C9E6" stroke="#292A3B" stroke-width="11" stroke-miterlimit="10" d="M494.089,274.549
	c0,15.938-12.921,28.858-28.858,28.858H245.331c-15.938,0-28.858-12.921-28.858-28.858v-2.309c0-15.938,12.92-28.858,28.858-28.858
	H465.23c15.938,0,28.858,12.92,28.858,28.858V274.549z"/>
<path opacity="0.1" fill="#606DB3" d="M487.553,272.237v2.309c0,15.941-12.339,28.859-27.539,28.859h-209.84
	c-15.212,0-27.539-12.918-27.539-28.859v-2.309c0-0.531,0.011-1.05,0.044-1.581c24.63,10.262,72.987,17.234,128.604,17.234
	c61.731,0,114.505-8.588,135.84-20.72C487.408,268.821,487.553,270.506,487.553,272.237z"/>
<g>
	<circle fill="#F89C1E" stroke="#292A3B" stroke-width="11" stroke-miterlimit="10" cx="374.946" cy="146.87" r="37.804"/>
	<path opacity="0.15" fill="#A45C26" d="M407.382,146.895c0,17.355-14.522,31.427-32.437,31.427c-0.739,0-1.466-0.022-2.193-0.088
		c8.289-8.711,13.355-20.406,13.355-33.261c0-11.066-3.763-21.28-10.1-29.471C393.426,116.032,407.382,129.883,407.382,146.895z"/>
</g>
<g>
	<circle fill="#F89C1E" stroke="#292A3B" stroke-width="11" stroke-miterlimit="10" cx="264.13" cy="118.012" r="23.151"/>
	<path opacity="0.15" fill="#A45C26" d="M283.993,118.027c0,10.628-8.893,19.246-19.863,19.246c-0.453,0-0.898-0.014-1.343-0.054
		c5.076-5.334,8.179-12.497,8.179-20.369c0-6.777-2.305-13.031-6.185-18.048C275.447,99.127,283.993,107.609,283.993,118.027z"/>
</g>
<g>
	<circle fill="#F89C1E" stroke="#292A3B" stroke-width="11" stroke-miterlimit="10" cx="327.894" cy="61.675" r="28.922"/>
	<path opacity="0.15" fill="#A45C26" d="M352.709,61.694c0,13.278-11.11,24.043-24.815,24.043c-0.565,0-1.122-0.017-1.678-0.067
		c6.341-6.664,10.218-15.612,10.218-25.447c0-8.465-2.88-16.28-7.728-22.547C342.033,38.083,352.709,48.68,352.709,61.694z"/>
</g>
<g>
	<circle fill="#F89C1E" stroke="#292A3B" stroke-width="11" stroke-miterlimit="10" cx="445.084" cy="80.144" r="24.124"/>
	<path opacity="0.15" fill="#A45C26" d="M465.783,80.159c0,11.075-9.269,20.055-20.699,20.055c-0.471,0-0.936-0.014-1.4-0.057
		c5.29-5.558,8.522-13.021,8.522-21.225c0-7.061-2.401-13.579-6.443-18.806C456.878,60.465,465.783,69.304,465.783,80.159z"/>
</g>
<g>
	<circle fill="#FED73C" cx="355.281" cy="542.458" r="46.113"/>
	<circle fill="#FDC010" cx="355.281" cy="542.458" r="37.717"/>
</g>
<polygon opacity="0.1" fill="#606DB3" points="401.393,309.433 427.67,309.433 391.117,361.989 386.5,444.104 377.265,444.104 
	382.267,361.989 "/>
</svg>
