<?xml version="1.0" encoding="utf-8"?>
<!-- Generator: Adobe Illustrator 16.0.0, SVG Export Plug-In . SVG Version: 6.00 Build 0)  -->
<!DOCTYPE svg PUBLIC "-//W3C//DTD SVG 1.1//EN" "http://www.w3.org/Graphics/SVG/1.1/DTD/svg11.dtd">
<svg version="1.1" id="Layer_1" xmlns="http://www.w3.org/2000/svg" xmlns:xlink="http://www.w3.org/1999/xlink" x="0px" y="0px"
	 width="800px" height="600px" viewBox="0 0 800 600" enable-background="new 0 0 800 600" xml:space="preserve">
<path fill="#C6C9E6" d="M428.225,161.147L276.939,262.969v171.456h31.223l2.39-160.895l107.11-0.951v161.846h162.321V262.969
	L428.225,161.147z M534.844,356.607h-72.098V284.12h72.098V356.607z"/>
<path fill="none" d="M42.399,238.344"/>
<rect x="330.25" y="293.225" fill="#282A3B" width="65.319" height="141.198"/>
<polygon fill="#282A3B" points="214.506,235.108 232.757,262.968 428.225,136.174 623.696,262.968 642.906,234.148 428.705,91.028 
	"/>
<polygon fill="#C6C9E6" points="276.942,72.295 318.244,72.295 318.244,112.637 276.942,160.184 "/>
<rect x="211" y="488.206" fill="#282A3B" width="428" height="20.171"/>
<rect x="324.968" y="455.548" fill="#282A3B" width="22.092" height="81.645"/>
<path fill="#C6C9E6" d="M369.153,542.957c0,4.773-3.871,8.645-8.646,8.645h-47.066c-4.774,0-8.644-3.871-8.644-8.645l0,0
	c0-4.774,3.87-8.646,8.644-8.646h47.066C365.282,534.312,369.153,538.183,369.153,542.957L369.153,542.957z"/>
<rect x="422.942" y="455.548" fill="#282A3B" width="22.093" height="81.645"/>
<path fill="#C6C9E6" d="M467.128,542.957c0,4.773-3.871,8.645-8.646,8.645h-47.067c-4.772,0-8.644-3.871-8.644-8.645l0,0
	c0-4.774,3.871-8.646,8.644-8.646h47.067C463.257,534.312,467.128,538.183,467.128,542.957L467.128,542.957z"/>
<rect x="511.751" y="455.548" fill="#282A3B" width="22.094" height="81.645"/>
<path fill="#C6C9E6" d="M554.975,542.957c0,4.773-3.87,8.645-8.646,8.645h-47.065c-4.774,0-8.644-3.871-8.644-8.645l0,0
	c0-4.774,3.869-8.646,8.644-8.646h47.065C551.104,534.312,554.975,538.183,554.975,542.957L554.975,542.957z"/>
<polygon opacity="0.1" fill="#606DB3" points="428.225,161.147 500.747,277.377 534.844,284.12 534.844,356.607 520.917,434.423 
	579.984,431.063 579.984,262.969 "/>
</svg>
