<?xml version="1.0" encoding="utf-8"?>
<!-- Generator: Adobe Illustrator 16.0.0, SVG Export Plug-In . SVG Version: 6.00 Build 0)  -->
<!DOCTYPE svg PUBLIC "-//W3C//DTD SVG 1.1//EN" "http://www.w3.org/Graphics/SVG/1.1/DTD/svg11.dtd">
<svg version="1.1" id="Layer_1" xmlns="http://www.w3.org/2000/svg" xmlns:xlink="http://www.w3.org/1999/xlink" x="0px" y="0px"
	 width="800px" height="600px" viewBox="0 0 800 600" enable-background="new 0 0 800 600" xml:space="preserve">
<path fill="#FED129" d="M451.557,262.251c0,0,51.733-45.832,13.712-89.811c-38.02-43.981-89.107-25.23-124.536-18.958
	c-35.432,6.271-100.023,14.602-115.995-14.955c0,0,3.926,47.405,89.377,55.598c0,0,51.606-1.549,37.271,43.836
	c-14.333,45.383-92.289,2.903-92.289,2.903s-54.474-43.32-100.674-37.601c-46.203,5.716-68.067,37.965-95.601,35.679
	c-27.536-2.286-53.177-18.192-53.177-18.192s47.814,61.441,100.56,46.129c11.971-3.475,32.649-11.308,47.333-16.106
	c7.368-2.407,31.087-1.691,37.767,1.354c13.88,6.329,24.258,16.628,27.362,21.686c4.295,7.004,6.219,15.536,5.263,27.016
	c-2.297,27.532-46.524,62.608-119.673,3.758c0,0,25.697,67.216,135.904,56.163c0,0,67.661-12.094,85.793,26.285
	c18.13,38.379-66.112,71.627-106.909,6.109c0,0,57.477,123.19,203.269,144.761C426.313,537.906,303.851,401.204,451.557,262.251z"/>
<path fill="#F99C1C" d="M436.329,68.336c0,0,75.395-79.851,106.354-60.355s6.758,85.158,4.487,87.447
	C544.9,97.716,436.329,68.336,436.329,68.336z"/>
<path fill="#C57929" d="M443.815,64.915c0,0,69.566-73.124,100.526-53.628s33.972,80.519,31.701,82.807
	C573.772,96.382,443.815,64.915,443.815,64.915z"/>
<path fill="#F99C1C" d="M478.212,276.404c0,0,51.729-45.832,13.712-89.811c-38.021-43.979-89.109-25.228-124.538-18.957
	c-35.431,6.271-100.023,14.602-115.995-14.955c0,0,3.926,47.405,89.377,55.598c0,0,51.606-1.549,37.271,43.836
	c-14.333,45.385-92.289,2.905-92.289,2.905s-54.474-43.322-100.674-37.604c-46.203,5.719-68.067,37.968-95.604,35.682
	c-27.534-2.286-53.175-18.193-53.175-18.193s47.814,61.439,100.558,46.129c11.971-3.475,32.651-11.31,47.333-16.105
	c7.37-2.407,31.089-1.694,37.769,1.352c13.88,6.329,24.258,16.628,27.362,21.686c4.295,7.006,6.219,15.536,5.26,27.018
	c-2.297,27.531-46.524,62.607-119.671,3.754c0,0,25.697,67.216,135.904,56.163c0,0,67.661-12.095,85.791,26.289
	c18.132,38.379-66.11,71.627-106.907,6.109c0,0,57.477,123.191,203.267,144.761C452.964,552.061,330.504,415.358,478.212,276.404z"
	/>
<path fill="#F99C1C" d="M412.474,116.034c0,0,67.794-21.694,103.858,20.35c36.068,42.044,50.647,68.802,25.323,105.813
	c-25.323,37.011-142.499,143.363-102.761,230.92c33.664,74.166,82.756,100.294,171.206,110.042
	c88.45,9.752,157.346-71.118,161.427-145.521c4.085-74.402-31.416-187.77-148.797-243.257c0,0-18.525-33.398-18.128-56.25
	c0.394-22.853-6.86-98.893-60.261-126.845c0,0,25.118,53.307-55.573,48.576C408.082,55.129,413.891,105.819,412.474,116.034z"/>
<path opacity="0.2" fill="#C57929" d="M632.697,583.963c0,0-111.432,10.231-169.226-68.713
	c-57.792-78.943-23.559-129.528-16.697-142.883c6.86-13.354,26.691-44.868,26.691-44.868s-20.117,111.753,58.115,165.529
	c0,0,5.006-25.172-5.291-49.771C526.29,443.257,597.801,581.076,632.697,583.963z"/>
<path opacity="0.2" fill="#C57929" d="M412.474,116.034c0,0,84.626-38.131,130.21,57.303c0,0-8.537-78.385-45.584-95.434
	c0,0,4.948,7.037,8.773,20.767C505.873,98.67,450.26,70.086,412.474,116.034z"/>
<path opacity="0.2" fill="#C57929" d="M592.155,189.337c0,0,54.085,26.019,62.474,97.722c0,0,13.507-19.064,3.813-48.86
	c0,0,118.234,196.843,49.584,256.34c0,0,47.461-26.352,45.003-97.639c0,0,2.087,95.011-23.746,137.895
	c0,0,60.561-59.076,38.339-153.024c-22.223-93.947-77.97-142.568-77.97-142.568l-73.209-53.593L592.155,189.337z"/>
<path fill="#B92726" d="M611.906,174.47c0,0,11.017-13.453-1.283-22.081c-12.304-8.628-57.36,9.086-67.939,20.948
	c-10.584,11.859-9.131,18.347,3.643,23.579C546.326,196.916,566.541,183.004,611.906,174.47z"/>
<path fill="#871719" d="M620.59,190.298c0,0,11.018-13.451-1.282-22.081c-12.3-8.628-57.356,9.086-67.94,20.948
	c-10.579,11.862-9.126,18.349,3.643,23.578C555.01,212.744,575.226,198.833,620.59,190.298z"/>
<path opacity="0.2" fill="#C57929" d="M544.342,11.287c0,0,40.694,21.542,55.188,82.926c0,0-31.224-71.098-55.188-51.247
	C544.342,42.966,549.844,27.493,544.342,11.287z"/>
<g>
	<text transform="matrix(1.0691 0 0 1 540.8018 449.9648)" fill="#262323" font-family="'NEWSFLASH'" font-size="173.6469">$</text>
</g>
</svg>
