<?xml version="1.0" encoding="utf-8"?>
<!-- Generator: Adobe Illustrator 16.0.0, SVG Export Plug-In . SVG Version: 6.00 Build 0)  -->
<!DOCTYPE svg PUBLIC "-//W3C//DTD SVG 1.1//EN" "http://www.w3.org/Graphics/SVG/1.1/DTD/svg11.dtd">
<svg version="1.1" id="Layer_1" xmlns="http://www.w3.org/2000/svg" xmlns:xlink="http://www.w3.org/1999/xlink" x="0px" y="0px"
	 width="800px" height="600px" viewBox="0 0 800 600" enable-background="new 0 0 800 600" xml:space="preserve">
<path fill="none" d="M-667.642,171.387"/>
<polygon fill="#282A3B" points="308.016,164.06 308.016,110.56 397.628,69.671 487.622,112.089 489.914,165.589 "/>
<polygon fill="#282A3B" points="123.91,529.692 676.09,529.692 676.09,489.589 618.508,489.589 618.508,227.38 185.605,227.38 
	185.605,489.589 123.91,489.589 "/>
<polygon fill="#C6C9E6" points="330.562,163.093 330.562,122.597 397.958,91.645 465.644,123.753 467.368,164.251 "/>
<polygon fill="#C6C9E6" points="245.245,529.692 554.754,529.692 554.754,154.373 245.245,151.222 "/>
<polygon opacity="0.1" fill="#606DB3" points="397.958,91.645 465.644,123.753 467.368,153.483 554.754,154.373 554.754,529.692 
	397.958,529.692 "/>
<rect x="276.709" y="210.178" fill="#E9EAF5" width="50.045" height="52.788"/>
<rect x="339.094" y="210.178" fill="#E9EAF5" width="50.045" height="52.788"/>
<rect x="408.334" y="210.178" fill="#E9EAF5" width="50.045" height="52.788"/>
<rect x="477.575" y="210.178" fill="#E9EAF5" width="50.045" height="52.788"/>
<rect x="276.709" y="299.3" fill="#E9EAF5" width="50.045" height="52.787"/>
<rect x="276.709" y="388.421" fill="#E9EAF5" width="50.045" height="52.785"/>
<rect x="478.261" y="388.421" fill="#E9EAF5" width="50.044" height="52.785"/>
<rect x="339.094" y="299.3" fill="#E9EAF5" width="50.045" height="52.787"/>
<rect x="408.334" y="299.3" fill="#E9EAF5" width="50.045" height="52.787"/>
<rect x="477.575" y="299.3" fill="#E9EAF5" width="50.045" height="52.787"/>
<rect x="343.207" y="401.446" fill="#282A3B" width="115.172" height="128.883"/>
</svg>
