<?xml version="1.0" encoding="utf-8"?>
<!-- Generator: Adobe Illustrator 16.0.0, SVG Export Plug-In . SVG Version: 6.00 Build 0)  -->
<!DOCTYPE svg PUBLIC "-//W3C//DTD SVG 1.1//EN" "http://www.w3.org/Graphics/SVG/1.1/DTD/svg11.dtd">
<svg version="1.1" id="Layer_1" xmlns="http://www.w3.org/2000/svg" xmlns:xlink="http://www.w3.org/1999/xlink" x="0px" y="0px"
	 width="800px" height="600px" viewBox="0 0 800 600" enable-background="new 0 0 800 600" xml:space="preserve">
<g>
	<circle fill="#F89C1E" stroke="#292A3B" stroke-width="11" stroke-miterlimit="10" cx="258.633" cy="57.661" r="44.631"/>
	<path opacity="0.15" fill="#A45C26" d="M296.927,57.691c0,20.488-17.144,37.102-38.293,37.102c-0.873,0-1.731-0.027-2.59-0.105
		c9.786-10.284,15.768-24.09,15.768-39.267c0-13.064-4.442-25.123-11.924-34.792C280.451,21.254,296.927,37.607,296.927,57.691z"/>
</g>
<g>
	<circle fill="#F89C1E" stroke="#292A3B" stroke-width="11" stroke-miterlimit="10" cx="378.694" cy="74.208" r="44.631"/>
	<path opacity="0.15" fill="#A45C26" d="M416.986,74.237c0,20.488-17.144,37.102-38.293,37.102c-0.873,0-1.731-0.027-2.589-0.105
		c9.785-10.283,15.768-24.09,15.768-39.267c0-13.064-4.443-25.123-11.925-34.793C400.512,37.801,416.986,54.153,416.986,74.237z"/>
</g>
<polygon fill="#E9EAF5" stroke="#292A3B" stroke-width="11" stroke-miterlimit="10" points="225.142,109.64 293.28,213.21 
	293.28,318.824 392.081,318.824 397.532,217.98 470.44,109.64 "/>
<path fill="#C6C9E6" stroke="#292A3B" stroke-width="11" stroke-miterlimit="10" d="M511.664,111.003
	c0,18.815-15.254,34.069-34.068,34.069H217.987c-18.816,0-34.069-15.254-34.069-34.069v-2.726c0-18.816,15.253-34.069,34.069-34.069
	h259.608c18.814,0,34.068,15.253,34.068,34.069V111.003z"/>
<path opacity="0.1" fill="#606DB3" d="M503.948,108.274V111c0,18.82-14.567,34.07-32.512,34.07H223.704
	c-17.96,0-32.512-15.25-32.512-34.07v-2.726c0-0.626,0.013-1.239,0.052-1.866c29.078,12.114,86.167,20.346,151.826,20.346
	c72.878,0,135.182-10.139,160.37-24.461C503.778,104.24,503.948,106.229,503.948,108.274z"/>
<g>
	<circle fill="#FED73C" cx="347.571" cy="417.381" r="54.439"/>
	<path fill="#FDC010" d="M392.098,417.381c0,24.595-19.938,44.526-44.527,44.526c-24.59,0-44.528-19.932-44.528-44.526
		c0-24.596,19.938-44.527,44.528-44.527C372.16,372.854,392.098,392.785,392.098,417.381z"/>
</g>
<g>
	<circle fill="#FED73C" cx="232.849" cy="506.438" r="54.439"/>
	<path fill="#FDC010" d="M277.376,506.438c0,24.595-19.937,44.526-44.527,44.526s-44.527-19.932-44.527-44.526
		c0-24.596,19.937-44.527,44.527-44.527S277.376,481.843,277.376,506.438z"/>
</g>
<g>
	<circle fill="#FED73C" cx="470.441" cy="532.531" r="54.439"/>
	<circle fill="#FDC010" cx="470.441" cy="532.531" r="44.527"/>
</g>
<polygon opacity="0.1" fill="#606DB3" points="402.23,152.186 433.253,152.186 390.098,214.233 384.647,311.175 373.745,311.175 
	379.65,214.233 "/>
</svg>
