<?xml version="1.0" encoding="utf-8"?>
<!-- Generator: Adobe Illustrator 16.0.0, SVG Export Plug-In . SVG Version: 6.00 Build 0)  -->
<!DOCTYPE svg PUBLIC "-//W3C//DTD SVG 1.1//EN" "http://www.w3.org/Graphics/SVG/1.1/DTD/svg11.dtd">
<svg version="1.1" id="Layer_1" xmlns="http://www.w3.org/2000/svg" xmlns:xlink="http://www.w3.org/1999/xlink" x="0px" y="0px"
	 width="800px" height="600px" viewBox="0 0 800 600" enable-background="new 0 0 800 600" xml:space="preserve">
<g>
	<path fill="#2A2B3C" d="M114.888,352.789c-6.336,13.839-22.689,19.917-36.525,13.58l-31.591-14.466
		c-13.835-6.339-19.915-22.692-13.579-36.527l87.294-190.605c6.335-13.835,22.688-19.916,36.523-13.579l31.593,14.47
		c13.835,6.335,19.916,22.688,13.58,36.523L114.888,352.789z"/>
	<circle fill="#FFFFFF" cx="77.99" cy="316.725" r="28.355"/>
	<path fill="#F99C1C" d="M600.137,146.605c-6.146-13.925,0.16-30.188,14.084-36.333l31.789-14.028
		c13.924-6.139,30.193,0.168,36.336,14.089l84.619,191.807c6.141,13.924-0.16,30.188-14.086,36.33l-31.789,14.025
		c-13.924,6.144-30.191-0.163-36.334-14.085L600.137,146.605z"/>
	<circle fill="#FFFFFF" cx="720.126" cy="305.849" r="28.356"/>
	<path fill="#F3AA78" d="M327.408,224.371c0,0-44.101,33.845-5.377,68.505c38.725,34.659,80.289-12.203,80.289-12.203
		s49.002-37.912,80.883-10.039c31.879,27.873,67.523,59.391,67.523,59.391l67.59,62.489l46.668-28.354l-78.426-190.625
		c0,0-1.469-5.875-25.73-10.115s-46.145-12.471-61.533-16.49c-15.389-4.019-52.406-12.169-78.951,3.522
		C393.8,166.145,327.408,224.371,327.408,224.371z"/>
	<path fill="#F3AA78" d="M196.339,224.371l25.593-59.288c0,0,18.02,9.881,71.333-8.646c53.313-18.527,82.85-9.076,86.985-1.987
		c4.135,7.089-69.601,66.814-69.601,66.814s-49.767,39.003-8.987,82.68c40.78,43.676,70.654,14.262,78.756,14.791
		c8.102,0.53,55.953-37.277,55.953-37.277s17.582-13.589,30.057,0.885c12.475,14.475,151.889,129.075,151.889,129.075
		s-9.359,34.161-54.596,20.92c0,0-6.25,47.49-60.006,36.917c0,0-10.043,52.04-62.619,38.453c0,0-5.907,53.757-57.301,28.946
		l42.983-39.631c0,0,35.586-63.748-46.527-66.111c0,0-14.178-51.984-62.027-38.988c0,0-11.814-44.304-55.529-36.033
		c0,0,3.413-51.777-57.072-36.816l-54.577,44.748L139.82,355.3L196.339,224.371z"/>
	<path fill="#F3AA78" d="M241.151,329.387c7.891,8.251,7.599,21.34-0.655,29.231l-58.92,56.34
		c-8.253,7.887-21.343,7.596-29.233-0.66l0,0c-7.891-8.252-7.599-21.341,0.655-29.232l58.92-56.337
		C220.171,320.839,233.261,321.132,241.151,329.387L241.151,329.387z"/>
	<path fill="#F3AA78" d="M291.288,378.23c7.891,8.252,7.599,21.34-0.655,29.232l-58.92,56.337
		c-8.253,7.892-21.343,7.596-29.233-0.655l0,0c-7.891-8.252-7.599-21.341,0.655-29.232l58.92-56.34
		C270.308,369.684,283.397,369.977,291.288,378.23L291.288,378.23z"/>
	<path fill="#F3AA78" d="M349.759,420.427c7.891,8.252,7.599,21.34-0.655,29.232l-58.92,56.337
		c-8.253,7.892-21.343,7.596-29.233-0.656l0,0c-7.891-8.251-7.599-21.34,0.655-29.231l58.92-56.342
		C328.779,411.879,341.869,412.17,349.759,420.427L349.759,420.427z"/>
	<path fill="#F3AA78" d="M401.83,462.632c7.891,8.252,7.598,21.341-0.654,29.232l-58.922,56.342
		c-8.253,7.887-21.343,7.596-29.233-0.66l0,0c-7.891-8.252-7.599-21.341,0.655-29.232l58.92-56.337
		C380.85,454.085,393.938,454.38,401.83,462.632L401.83,462.632z"/>
</g>
</svg>
