<?xml version="1.0" encoding="utf-8"?>
<!-- Generator: Adobe Illustrator 16.0.0, SVG Export Plug-In . SVG Version: 6.00 Build 0)  -->
<!DOCTYPE svg PUBLIC "-//W3C//DTD SVG 1.1//EN" "http://www.w3.org/Graphics/SVG/1.1/DTD/svg11.dtd">
<svg version="1.1" id="Layer_1" xmlns="http://www.w3.org/2000/svg" xmlns:xlink="http://www.w3.org/1999/xlink" x="0px" y="0px"
	 width="800px" height="800px" viewBox="0 0 800 800" enable-background="new 0 0 800 800" xml:space="preserve">
<g>
	<circle fill="#FED73C" cx="383.862" cy="428.873" r="54.494"/>
	<circle fill="#FDC010" cx="383.862" cy="428.873" r="44.571"/>
</g>
<g>
	<circle fill="#FED73C" cx="587.447" cy="438.374" r="54.494"/>
	<circle fill="#FDC010" cx="587.448" cy="438.374" r="44.571"/>
</g>
<g>
	<circle fill="#FED73C" cx="481.935" cy="483.367" r="54.494"/>
	<circle fill="#FDC010" cx="481.935" cy="483.367" r="44.571"/>
</g>
<path fill="#2A2B3C" d="M198.452,518.375l-69.692,52.762l111.496,138.342l61.69-54.734L198.452,518.375z M256.022,664.539
	c-8.777,0-15.916-7.138-15.916-15.915c0-8.811,7.138-15.916,15.916-15.916c8.81,0,15.945,7.105,15.945,15.916
	C271.967,657.401,264.832,664.539,256.022,664.539z"/>
<path fill="#F3AA78" d="M225.317,505.441c0,0,51.753-91.568,139.343-60.715c87.59,30.855,129.394,22.893,129.394,22.893
	s34.835-7.963,43.793,14.931c8.958,22.892-7.961,36.826-27.868,40.807c-19.907,3.981-127.166,7.964-127.166,7.964
	s137.063,21.898,157.495-5.972c20.433-27.869,18.44-40.809,18.44-40.809s8.959-8.958,35.832-23.889
	c26.874-14.931,97.543-40.81,70.668,8.958c-26.873,49.768-137.357,109.486-196.079,118.444
	c-58.723,8.958-99.534-13.935-161.242,39.813L225.317,505.441z"/>
<g>
	<circle fill="#FED73C" cx="481.935" cy="339.309" r="54.494"/>
	<circle fill="#FDC010" cx="481.935" cy="339.309" r="44.571"/>
</g>
<g>
	<circle fill="#FED73C" cx="492.85" cy="145.016" r="54.494"/>
	<circle fill="#FDC010" cx="492.85" cy="145.016" r="44.571"/>
</g>
</svg>
