<?xml version="1.0" encoding="utf-8"?>
<!-- Generator: Adobe Illustrator 16.0.0, SVG Export Plug-In . SVG Version: 6.00 Build 0)  -->
<!DOCTYPE svg PUBLIC "-//W3C//DTD SVG 1.1//EN" "http://www.w3.org/Graphics/SVG/1.1/DTD/svg11.dtd">
<svg version="1.1" id="Layer_1" xmlns="http://www.w3.org/2000/svg" xmlns:xlink="http://www.w3.org/1999/xlink" x="0px" y="0px"
	 width="800px" height="600px" viewBox="0 0 800 600" enable-background="new 0 0 800 600" xml:space="preserve">
<path fill="#E25C64" d="M275.724,34.618c0,0,14.341,51.041-15.061,111.125c-29.402,60.084-37.376,124.567,9.277,157.364
	c0,0-6.407-70.04,17.974-111.732C312.296,149.685,307.275,50.182,275.724,34.618z"/>
<path fill="#E25C64" d="M347.25,10.452c0,0,14.34,64.173-15.061,139.711c-29.402,75.538-37.379,156.608,9.278,197.844
	c0,0-6.41-88.061,17.97-140.476C383.82,155.117,378.801,30.021,347.25,10.452z"/>
<path fill="#E25C64" d="M412.193,44.984c0,0,14.344,51.041-15.057,111.125c-29.402,60.083-37.38,124.563,9.277,157.359
	c0,0-6.409-70.04,17.971-111.727C448.766,160.049,443.749,60.547,412.193,44.984z"/>
<g>
	<path fill="#F99C1C" d="M232.675,213.083c0,0,52.567-55.674,74.151-42.08c21.586,13.592,4.713,59.373,3.128,60.968
		C308.373,233.566,232.675,213.083,232.675,213.083z"/>
	<path fill="#C57929" d="M237.896,210.698c0,0,48.501-50.986,70.088-37.391c21.585,13.592,23.686,56.138,22.104,57.734
		C328.503,232.635,237.896,210.698,237.896,210.698z"/>
	<path fill="#F99C1C" d="M216.045,246.338c0,0,47.268-15.126,72.411,14.188c25.145,29.313,35.31,47.967,17.657,73.774
		c-17.657,25.809-99.354,99.955-71.647,161.002c23.469,51.702,57.697,69.925,119.365,76.722
		c61.669,6.797,109.704-49.585,112.55-101.459c2.848-51.877-21.904-130.916-103.743-169.607c0,0-12.917-23.28-12.64-39.213
		c0.275-15.932-4.782-68.949-42.015-88.437c0,0,17.514,37.168-38.745,33.869C212.981,203.873,217.032,239.217,216.045,246.338z"/>
	<path opacity="0.2" fill="#C57929" d="M369.587,572.589c0,0-77.691,7.13-117.986-47.912
		c-40.296-55.042-16.425-90.313-11.642-99.619c4.782-9.31,18.609-31.283,18.609-31.283s-14.025,77.913,40.521,115.407
		c0,0,3.487-17.545-3.692-34.698C295.398,474.483,345.256,570.571,369.587,572.589z"/>
	<path opacity="0.2" fill="#C57929" d="M216.045,246.338c0,0,59-26.585,90.781,39.953c0,0-5.95-54.651-31.781-66.538
		c0,0,3.451,4.905,6.118,14.479C281.163,234.232,242.389,214.301,216.045,246.338z"/>
	<path opacity="0.2" fill="#C57929" d="M341.32,297.445c0,0,37.709,18.141,43.558,68.131c0,0,9.418-13.289,2.658-34.061
		c0,0,82.433,137.235,34.57,178.72c0,0,33.092-18.374,31.377-68.075c0,0,1.455,66.243-16.559,96.14
		c0,0,42.225-41.184,26.732-106.691c-15.493-65.496-54.359-99.401-54.359-99.401l-51.042-37.36L341.32,297.445z"/>
	<path fill="#B92726" d="M355.091,287.08c0,0,7.681-9.378-0.896-15.396c-8.575-6.015-39.991,6.337-47.369,14.606
		c-7.376,8.267-6.364,12.79,2.542,16.439C309.368,302.729,323.462,293.031,355.091,287.08z"/>
	<path fill="#871719" d="M361.146,298.113c0,0,7.679-9.375-0.894-15.394c-8.577-6.015-39.993,6.335-47.369,14.606
		c-7.376,8.269-6.363,12.788,2.539,16.435C315.421,313.761,329.517,304.063,361.146,298.113z"/>
	<path opacity="0.2" fill="#C57929" d="M307.983,173.308c0,0,28.372,15.019,38.479,57.816c0,0-21.771-49.57-38.479-35.73
		C307.983,195.394,311.818,184.605,307.983,173.308z"/>
	<g>
		<text transform="matrix(1.0691 0 0 1 305.5161 479.1582)" fill="#262323" font-family="'NEWSFLASH'" font-size="121.0686">$</text>
	</g>
</g>
<path fill="#F47E5F" d="M189.518,376.736c0,0-56.913,54.035,17.468,118.021c74.381,63.99,187.646,37.509,215.26,30.179
	c27.611-7.325,76.639-29.303,93.542-80.581c0,0,9.018-49.024-18.595-67.619c0,0,81.71,56.911,32.12,134.676
	c-32.969,51.703-107.037,71.765-163.413,77.254c-28.421,2.774-95.936-7.694-116.501-15.263
	c-36.217-13.326-77.799-36.383-101.543-76.643C110.628,433.647,183.884,381.245,189.518,376.736z"/>
</svg>
