<?xml version="1.0" encoding="utf-8"?>
<!-- Generator: Adobe Illustrator 16.0.0, SVG Export Plug-In . SVG Version: 6.00 Build 0)  -->
<!DOCTYPE svg PUBLIC "-//W3C//DTD SVG 1.1//EN" "http://www.w3.org/Graphics/SVG/1.1/DTD/svg11.dtd">
<svg version="1.1" id="Layer_1" xmlns="http://www.w3.org/2000/svg" xmlns:xlink="http://www.w3.org/1999/xlink" x="0px" y="0px"
	 width="100px" height="100px" viewBox="0 0 100 100" enable-background="new 0 0 100 100" xml:space="preserve">
<g>
	<path fill="#1E1D1D" d="M83.687,24.692H11.953c-4.921,0-8.911,3.991-8.911,8.914V79.72c0,4.919,3.989,8.909,8.911,8.909h71.733
		c4.923,0,8.909-3.99,8.909-8.909V33.606C92.596,28.683,88.609,24.692,83.687,24.692z M84.482,76.501c0,3.5-3.268,6.336-7.296,6.336
		H18.452c-4.029,0-7.296-2.836-7.296-6.336V43.724c0-3.5,3.267-6.336,7.296-6.336h58.734c4.028,0,7.296,2.836,7.296,6.336V76.501z"
		/>
	<g>
		<g>
			<path fill="#1E1D1D" d="M29.552,26.582c0,3.876-3.142,7.018-7.018,7.018l0,0c-3.875,0-7.017-3.142-7.017-7.018V15.89
				c0-3.875,3.143-7.017,7.017-7.017l0,0c3.876,0,7.018,3.142,7.018,7.017V26.582z"/>
			<g>
				<path fill="#FFFFFF" d="M27.087,24.707c0,2.512-2.039,4.55-4.553,4.55l0,0c-2.514,0-4.553-2.039-4.553-4.55v-6.938
					c0-2.516,2.039-4.554,4.553-4.554l0,0c2.514,0,4.553,2.039,4.553,4.554V24.707z"/>
			</g>
		</g>
		<g>
			<path fill="#1E1D1D" d="M80.123,26.582c0,3.876-3.144,7.018-7.018,7.018l0,0c-3.876,0-7.018-3.142-7.018-7.018V15.89
				c0-3.875,3.142-7.017,7.018-7.017l0,0c3.874,0,7.018,3.142,7.018,7.017V26.582z"/>
			<g>
				<path fill="#FFFFFF" d="M77.656,24.707c0,2.512-2.039,4.55-4.551,4.55l0,0c-2.516,0-4.554-2.039-4.554-4.55v-6.938
					c0-2.516,2.038-4.554,4.554-4.554l0,0c2.512,0,4.551,2.039,4.551,4.554V24.707z"/>
			</g>
		</g>
	</g>
	<circle fill="#1E1D1D" cx="81.346" cy="75.438" r="15.735"/>
	<text transform="matrix(1 0 0 1 31.3408 78.2178)" font-family="'MyriadPro-Regular'" font-size="50.0549">₹</text>
	<g>
		<g>
			<rect x="81.38" y="67.198" fill="#FFFFFF" width="8.833" height="2.672"/>
			<rect x="81.38" y="81.003" fill="#FFFFFF" width="8.833" height="2.672"/>
			<rect x="88.766" y="67.198" fill="#FFFFFF" width="1.893" height="16.477"/>
		</g>
		<polygon fill="#FFFFFF" points="79.866,70.565 84.333,75.092 79.858,80.304 79.876,76.975 72.034,76.988 72.034,73.171 
			79.866,73.188 		"/>
	</g>
</g>
</svg>
