<?xml version="1.0" encoding="utf-8"?>
<!-- Generator: Adobe Illustrator 16.0.0, SVG Export Plug-In . SVG Version: 6.00 Build 0)  -->
<!DOCTYPE svg PUBLIC "-//W3C//DTD SVG 1.1//EN" "http://www.w3.org/Graphics/SVG/1.1/DTD/svg11.dtd">
<svg version="1.1" id="Layer_1" xmlns="http://www.w3.org/2000/svg" xmlns:xlink="http://www.w3.org/1999/xlink" x="0px" y="0px"
	 width="100px" height="100px" viewBox="0 0 100 100" enable-background="new 0 0 100 100" xml:space="preserve">
<g>
	<polygon fill="#1E1D1D" points="58.305,4.515 86.225,34.903 58.305,34.903 	"/>
	<path fill="#1E1D1D" d="M86.225,60.41V38.23H55.822V4.777H17.979c-4.188,0-7.585,3.993-7.585,8.92v71.354
		c0,4.923,3.397,8.918,7.585,8.918h35.89C57.821,81.783,66.797,64.337,86.225,60.41z"/>
	<g>
		<rect x="19.142" y="43.528" fill="#F9F9FA" width="38.004" height="6.766"/>
		<g>
			<rect x="19.142" y="58.269" fill="#F9F9FA" width="38.004" height="6.767"/>
			<rect x="19.142" y="71.081" fill="#F9F9FA" width="38.004" height="6.766"/>
		</g>
	</g>
	<polygon fill="#1E1D1D" points="62.718,85.221 76.537,70.134 84.613,77.847 69.872,93.97 60.197,95.352 	"/>
	<polygon fill="#1E1D1D" points="78.278,68.289 86.801,76.119 90.947,72.203 82.771,64.027 	"/>
</g>
</svg>
