<?xml version="1.0" encoding="utf-8"?>
<!-- Generator: Adobe Illustrator 16.0.0, SVG Export Plug-In . SVG Version: 6.00 Build 0)  -->
<!DOCTYPE svg PUBLIC "-//W3C//DTD SVG 1.1//EN" "http://www.w3.org/Graphics/SVG/1.1/DTD/svg11.dtd">
<svg version="1.1" id="Layer_1" xmlns="http://www.w3.org/2000/svg" xmlns:xlink="http://www.w3.org/1999/xlink" x="0px" y="0px"
	 width="100px" height="100px" viewBox="0 0 100 100" enable-background="new 0 0 100 100" xml:space="preserve">
<g>
	<ellipse fill="#1E1D1D" cx="48.873" cy="28.873" rx="25.235" ry="22.584"/>
	<g>
		<path fill="#1E1D1D" d="M15.222,59.018c0,0,6.875-14.721,16.352-8.873c6.296,3.884,23.739,7.149,28.615,2.404
			s18.025-4.219,22.081,6.065c4.056,10.283,4.814,28.432-8.52,32.062c-13.336,3.629-42.401,0-42.401,0s-18.421,0.813-18.476-12.704
			C12.824,65.672,15.222,59.018,15.222,59.018z"/>
		<path fill="none" stroke="#FFFFFF" stroke-miterlimit="10" d="M58.4,70.667l-9.605,7.898c0,0-3.964,3.184-6.697,1.682
			c-2.735-1.503-4.376-5.808-0.658-9.58c2.112-2.143,5.023-4.75,7.144-6.604c1.615-1.412,3.297-3.124,4.383-3.419
			c1.178-0.32,3.204-0.527,4.577,0.886c2.01,2.121,0.253,4.153-0.687,5.088c-1.75,1.736-4.328,4.373-6.395,6.2
			c-1.523,1.346-3.036,2.453-3.493,2.787c-1.085,0.796-4.27,0-2.93-2.462c0.304-0.558,8.103-7.931,8.103-7.931"/>
	</g>
</g>
</svg>
