<?xml version="1.0" encoding="utf-8"?>
<!-- Generator: Adobe Illustrator 16.0.0, SVG Export Plug-In . SVG Version: 6.00 Build 0)  -->
<!DOCTYPE svg PUBLIC "-//W3C//DTD SVG 1.1//EN" "http://www.w3.org/Graphics/SVG/1.1/DTD/svg11.dtd">
<svg version="1.1" id="Layer_1" xmlns="http://www.w3.org/2000/svg" xmlns:xlink="http://www.w3.org/1999/xlink" x="0px" y="0px"
	 width="100px" height="100px" viewBox="0 0 100 100" enable-background="new 0 0 100 100" xml:space="preserve">
<g>
	<polyline fill="none" stroke="#1C1C1C" stroke-width="3" stroke-miterlimit="10" points="25.459,56.048 43.282,11.228 
		89.515,19.344 61.104,88.162 	"/>
	<path fill="#1E1D1D" d="M10.402,54.344c0,0-1.235,11.821,5.471,16.94c6.706,5.116,39.248,32.518,47.055,16.233
		c9.529-19.873,6.033-21.362,6.033-21.362s-22.384,31.42-22.914,2.657L10.402,54.344z"/>
	<g>
		<polygon fill="#1E1D1D" points="74.965,35.683 45.719,28.25 47.067,22.95 76.313,30.378 		"/>
		<polygon fill="#1E1D1D" points="70.377,44.329 41.131,36.896 42.479,31.597 71.726,39.025 		"/>
		<polygon fill="#1E1D1D" points="67.549,52.446 38.304,45.013 39.652,39.714 68.897,47.141 		"/>
	</g>
	<circle fill="#1E1D1D" cx="58.515" cy="84.797" r="11.385"/>
	<g>
		<polygon fill="#FFFFFF" points="54.071,86.707 58.848,81.494 61.639,84.159 56.544,89.731 53.202,90.21 		"/>
		<polygon fill="#FFFFFF" points="59.45,80.856 62.395,83.563 63.828,82.209 61.001,79.384 		"/>
	</g>
</g>
</svg>
